<svg width="140" height="40" viewBox="0 0 140 40" fill="none" xmlns="http://www.w3.org/2000/svg">
<path d="M6.98997 40C-2.32999 40 -2.32999 -2.34449e-05 6.98997 0H133.01C142.33 -4.05708e-05 142.33 40 133.01 40H6.98997Z" fill="#C082C3"/>
<path d="M25.1055 21.3203V28H22.8555V10.9375H29.1484C31.0156 10.9375 32.4766 11.4141 33.5312 12.3672C34.5938 13.3203 35.125 14.582 35.125 16.1523C35.125 17.8086 34.6055 19.0859 33.5664 19.9844C32.5352 20.875 31.0547 21.3203 29.125 21.3203H25.1055ZM25.1055 19.4805H29.1484C30.3516 19.4805 31.2734 19.1992 31.9141 18.6367C32.5547 18.0664 32.875 17.2461 32.875 16.1758C32.875 15.1602 32.5547 14.3477 31.9141 13.7383C31.2734 13.1289 30.3945 12.8125 29.2773 12.7891H25.1055V19.4805ZM45.3438 28C45.2188 27.75 45.1172 27.3047 45.0391 26.6641C44.0312 27.7109 42.8281 28.2344 41.4297 28.2344C40.1797 28.2344 39.1523 27.8828 38.3477 27.1797C37.5508 26.4688 37.1523 25.5703 37.1523 24.4844C37.1523 23.1641 37.6523 22.1406 38.6523 21.4141C39.6602 20.6797 41.0742 20.3125 42.8945 20.3125H45.0039V19.3164C45.0039 18.5586 44.7773 17.957 44.3242 17.5117C43.8711 17.0586 43.2031 16.832 42.3203 16.832C41.5469 16.832 40.8984 17.0273 40.375 17.418C39.8516 17.8086 39.5898 18.2812 39.5898 18.8359H37.4102C37.4102 18.2031 37.6328 17.5938 38.0781 17.0078C38.5312 16.4141 39.1406 15.9453 39.9062 15.6016C40.6797 15.2578 41.5273 15.0859 42.4492 15.0859C43.9102 15.0859 45.0547 15.4531 45.8828 16.1875C46.7109 16.9141 47.1406 17.918 47.1719 19.1992V25.0352C47.1719 26.1992 47.3203 27.125 47.6172 27.8125V28H45.3438ZM41.7461 26.3477C42.4258 26.3477 43.0703 26.1719 43.6797 25.8203C44.2891 25.4688 44.7305 25.0117 45.0039 24.4492V21.8477H43.3047C40.6484 21.8477 39.3203 22.625 39.3203 24.1797C39.3203 24.8594 39.5469 25.3906 40 25.7734C40.4531 26.1562 41.0352 26.3477 41.7461 26.3477ZM55.6562 26.4648C56.4297 26.4648 57.1055 26.2305 57.6836 25.7617C58.2617 25.293 58.582 24.707 58.6445 24.0039H60.6953C60.6562 24.7305 60.4062 25.4219 59.9453 26.0781C59.4844 26.7344 58.8672 27.2578 58.0938 27.6484C57.3281 28.0391 56.5156 28.2344 55.6562 28.2344C53.9297 28.2344 52.5547 27.6602 51.5312 26.5117C50.5156 25.3555 50.0078 23.7773 50.0078 21.7773V21.4141C50.0078 20.1797 50.2344 19.082 50.6875 18.1211C51.1406 17.1602 51.7891 16.4141 52.6328 15.8828C53.4844 15.3516 54.4883 15.0859 55.6445 15.0859C57.0664 15.0859 58.2461 15.5117 59.1836 16.3633C60.1289 17.2148 60.6328 18.3203 60.6953 19.6797H58.6445C58.582 18.8594 58.2695 18.1875 57.707 17.6641C57.1523 17.1328 56.4648 16.8672 55.6445 16.8672C54.543 16.8672 53.6875 17.2656 53.0781 18.0625C52.4766 18.8516 52.1758 19.9961 52.1758 21.4961V21.9062C52.1758 23.3672 52.4766 24.4922 53.0781 25.2812C53.6797 26.0703 54.5391 26.4648 55.6562 26.4648ZM67.3867 19.9492L70.1992 15.3203H72.7305L68.582 21.5898L72.8594 28H70.3516L67.4219 23.2539L64.4922 28H61.9727L66.25 21.5898L62.1016 15.3203H64.6094L67.3867 19.9492ZM74.2305 21.543C74.2305 20.3008 74.4727 19.1836 74.957 18.1914C75.4492 17.1992 76.1289 16.4336 76.9961 15.8945C77.8711 15.3555 78.8672 15.0859 79.9844 15.0859C81.7109 15.0859 83.1055 15.6836 84.168 16.8789C85.2383 18.0742 85.7734 19.6641 85.7734 21.6484V21.8008C85.7734 23.0352 85.5352 24.1445 85.0586 25.1289C84.5898 26.1055 83.9141 26.8672 83.0312 27.4141C82.1562 27.9609 81.1484 28.2344 80.0078 28.2344C78.2891 28.2344 76.8945 27.6367 75.8242 26.4414C74.7617 25.2461 74.2305 23.6641 74.2305 21.6953V21.543ZM76.4102 21.8008C76.4102 23.207 76.7344 24.3359 77.3828 25.1875C78.0391 26.0391 78.9141 26.4648 80.0078 26.4648C81.1094 26.4648 81.9844 26.0352 82.6328 25.1758C83.2812 24.3086 83.6055 23.0977 83.6055 21.543C83.6055 20.1523 83.2734 19.0273 82.6094 18.168C81.9531 17.3008 81.0781 16.8672 79.9844 16.8672C78.9141 16.8672 78.0508 17.293 77.3945 18.1445C76.7383 18.9961 76.4102 20.2148 76.4102 21.8008ZM87.543 26.2305L88.293 25.3047C89.1367 24.2109 89.6172 22.5703 89.7344 20.3828L89.9336 15.3203H98.1016V26.2305H99.7305V31.7266H97.5625V28H88.7148V31.7266H86.5469L86.5586 26.2305H87.543ZM90.1094 26.2305H95.9336V17.3242H92.0312L91.9023 20.3477C91.7695 22.8711 91.1719 24.832 90.1094 26.2305ZM104.5 19.6914H107.793C109.23 19.707 110.367 20.082 111.203 20.8164C112.039 21.5508 112.457 22.5469 112.457 23.8047C112.457 25.0703 112.027 26.0859 111.168 26.8516C110.309 27.6172 109.152 28 107.699 28H102.332V15.3203H104.5V19.6914ZM116.98 28H114.801V15.3203H116.98V28ZM104.5 21.4609V26.2305H107.723C108.535 26.2305 109.164 26.0234 109.609 25.6094C110.055 25.1875 110.277 24.6133 110.277 23.8867C110.277 23.1836 110.059 22.6094 109.621 22.1641C109.191 21.7109 108.586 21.4766 107.805 21.4609H104.5Z" fill="white"/>
</svg>
