<svg width="140" height="40" viewBox="0 0 140 40" fill="none" xmlns="http://www.w3.org/2000/svg">
<path d="M6.98997 40C-2.32999 40 -2.32999 -2.34449e-05 6.98997 0H133.01C142.33 -4.05708e-05 142.33 40 133.01 40H6.98997Z" fill="#C082C3"/>
<path d="M42.7773 32.1836H40.5391V28H28.293V32.1953H26.043L26.0312 26.1602H27.4258C28.1602 25.332 28.7422 24.2227 29.1719 22.832C29.6094 21.4336 29.8828 19.9023 29.9922 18.2383L30.3672 10.9375H40.5742V26.1602H42.8008L42.7773 32.1836ZM29.9922 26.1602H38.3125V12.7891H32.5352L32.2891 17.8047C32.1875 19.7656 31.9258 21.4375 31.5039 22.8203C31.0898 24.2031 30.5859 25.3164 29.9922 26.1602ZM44.5586 21.543C44.5586 20.3008 44.8008 19.1836 45.2852 18.1914C45.7773 17.1992 46.457 16.4336 47.3242 15.8945C48.1992 15.3555 49.1953 15.0859 50.3125 15.0859C52.0391 15.0859 53.4336 15.6836 54.4961 16.8789C55.5664 18.0742 56.1016 19.6641 56.1016 21.6484V21.8008C56.1016 23.0352 55.8633 24.1445 55.3867 25.1289C54.918 26.1055 54.2422 26.8672 53.3594 27.4141C52.4844 27.9609 51.4766 28.2344 50.3359 28.2344C48.6172 28.2344 47.2227 27.6367 46.1523 26.4414C45.0898 25.2461 44.5586 23.6641 44.5586 21.6953V21.543ZM46.7383 21.8008C46.7383 23.207 47.0625 24.3359 47.7109 25.1875C48.3672 26.0391 49.2422 26.4648 50.3359 26.4648C51.4375 26.4648 52.3125 26.0352 52.9609 25.1758C53.6094 24.3086 53.9336 23.0977 53.9336 21.543C53.9336 20.1523 53.6016 19.0273 52.9375 18.168C52.2812 17.3008 51.4062 16.8672 50.3125 16.8672C49.2422 16.8672 48.3789 17.293 47.7227 18.1445C47.0664 18.9961 46.7383 20.2148 46.7383 21.8008ZM62.8164 19.9492L65.6289 15.3203H68.1602L64.0117 21.5898L68.2891 28H65.7812L62.8516 23.2539L59.9219 28H57.4023L61.6797 21.5898L57.5312 15.3203H60.0391L62.8164 19.9492ZM69.6602 21.543C69.6602 20.3008 69.9023 19.1836 70.3867 18.1914C70.8789 17.1992 71.5586 16.4336 72.4258 15.8945C73.3008 15.3555 74.2969 15.0859 75.4141 15.0859C77.1406 15.0859 78.5352 15.6836 79.5977 16.8789C80.668 18.0742 81.2031 19.6641 81.2031 21.6484V21.8008C81.2031 23.0352 80.9648 24.1445 80.4883 25.1289C80.0195 26.1055 79.3438 26.8672 78.4609 27.4141C77.5859 27.9609 76.5781 28.2344 75.4375 28.2344C73.7188 28.2344 72.3242 27.6367 71.2539 26.4414C70.1914 25.2461 69.6602 23.6641 69.6602 21.6953V21.543ZM71.8398 21.8008C71.8398 23.207 72.1641 24.3359 72.8125 25.1875C73.4688 26.0391 74.3438 26.4648 75.4375 26.4648C76.5391 26.4648 77.4141 26.0352 78.0625 25.1758C78.7109 24.3086 79.0352 23.0977 79.0352 21.543C79.0352 20.1523 78.7031 19.0273 78.0391 18.168C77.3828 17.3008 76.5078 16.8672 75.4141 16.8672C74.3438 16.8672 73.4805 17.293 72.8242 18.1445C72.168 18.9961 71.8398 20.2148 71.8398 21.8008ZM82.9727 26.2305L83.7227 25.3047C84.5664 24.2109 85.0469 22.5703 85.1641 20.3828L85.3633 15.3203H93.5312V26.2305H95.1602V31.7266H92.9922V28H84.1445V31.7266H81.9766L81.9883 26.2305H82.9727ZM85.5391 26.2305H91.3633V17.3242H87.4609L87.332 20.3477C87.1992 22.8711 86.6016 24.832 85.5391 26.2305ZM99.9297 19.6914H103.223C104.66 19.707 105.797 20.082 106.633 20.8164C107.469 21.5508 107.887 22.5469 107.887 23.8047C107.887 25.0703 107.457 26.0859 106.598 26.8516C105.738 27.6172 104.582 28 103.129 28H97.7617V15.3203H99.9297V19.6914ZM112.41 28H110.23V15.3203H112.41V28ZM99.9297 21.4609V26.2305H103.152C103.965 26.2305 104.594 26.0234 105.039 25.6094C105.484 25.1875 105.707 24.6133 105.707 23.8867C105.707 23.1836 105.488 22.6094 105.051 22.1641C104.621 21.7109 104.016 21.4766 103.234 21.4609H99.9297Z" fill="white"/>
</svg>
