<svg width="231" height="133" viewBox="0 0 231 133" fill="none" xmlns="http://www.w3.org/2000/svg">
<path d="M0 133L14 0H231L219.5 133H0Z" fill="#94179D"/>
<path d="M34.1953 98.1213C32.1953 72.6213 46.1953 32.6213 47.1953 31.6213C53.1952 30.1213 77.6953 31.6213 79.6953 33.1213C81.6953 34.6213 67.6953 39.6213 60.6953 37.1213C55.0953 35.1213 51.0286 35.9547 49.6953 36.6213C46.0286 46.4547 39.4953 65.8213 42.6953 64.6213C45.8953 63.4213 73.6953 62.4547 87.1953 62.1213C87.5286 56.788 88.6953 46.1213 90.6953 46.1213C92.6953 46.1213 92.862 56.788 92.6953 62.1213C99.1953 62.4547 111.195 62.1213 111.195 62.1213C111.195 62.1213 113.695 43.6213 115.195 45.1213C116.395 46.3213 116.862 56.9547 116.195 62.1213H133C133 55.6213 135.5 40.1213 137 40.1213C139.5 40.1213 138 55.9547 138 62.1213C142.667 61.788 152.6 62.2213 151 64.6213C149.4 67.0213 141.333 66.4547 138 66.1213C137.6 75.7213 136.5 96.6213 134 96.6213C131.5 96.6213 132.167 75.1213 133 66.1213H116.195C115.795 75.7213 114.695 96.6213 112.195 96.6213C109.695 96.6213 110.362 75.1213 111.195 66.1213H92.6953C92.1953 76.288 90.5953 96.6213 88.1953 96.6213C85.7953 96.6213 86.5286 76.288 87.1953 66.1213C84.6953 66.6213 44.6953 66.6213 42.1953 67.6213C40.1953 68.4213 39.362 85.9547 39.1953 94.6213C45.1953 94.9547 58.8953 95.3213 65.6953 94.1213C72.4953 92.9213 74.862 95.288 75.1953 96.6213C60.7953 102.221 41.8619 99.9547 34.1953 98.1213Z" fill="white"/>
<path d="M156.195 93.1213C153.395 89.1213 157.695 56.6213 159.695 46.6213C160.048 44.8561 163.195 47.6213 163.195 49.6213C160.395 60.8213 160.029 78.9547 160.195 87.1213C162.195 86.788 168.795 84.1213 179.195 72.1213C192.195 57.1213 190.695 53.6213 191.695 49.6213C192.695 45.6213 196.195 46.6213 195.195 49.6213C194.395 52.0213 193.805 65.7609 193.195 76.1213C192.695 84.6213 193.495 101.221 190.695 97.6213C187.895 94.0213 192.216 57.58 190.695 60.6213C184.695 72.6213 159.695 98.1213 156.195 93.1213Z" fill="white"/>
<path d="M34.1953 98.1213C32.1953 72.6213 46.1953 32.6213 47.1953 31.6213C53.1952 30.1213 77.6953 31.6213 79.6953 33.1213C81.6953 34.6213 67.6953 39.6213 60.6953 37.1213C55.0953 35.1213 51.0286 35.9547 49.6953 36.6213C46.0286 46.4547 39.4953 65.8213 42.6953 64.6213C45.8953 63.4213 73.6953 62.4547 87.1953 62.1213C87.5286 56.788 88.6953 46.1213 90.6953 46.1213C92.6953 46.1213 92.862 56.788 92.6953 62.1213C99.1953 62.4547 111.195 62.1213 111.195 62.1213C111.195 62.1213 113.695 43.6213 115.195 45.1213C116.395 46.3213 116.862 56.9547 116.195 62.1213H133C133 55.6213 135.5 40.1213 137 40.1213C139.5 40.1213 138 55.9547 138 62.1213C142.667 61.788 152.6 62.2213 151 64.6213C149.4 67.0213 141.333 66.4547 138 66.1213C137.6 75.7213 136.5 96.6213 134 96.6213C131.5 96.6213 132.167 75.1213 133 66.1213H116.195C115.795 75.7213 114.695 96.6213 112.195 96.6213C109.695 96.6213 110.362 75.1213 111.195 66.1213H92.6953C92.1953 76.288 90.5953 96.6213 88.1953 96.6213C85.7953 96.6213 86.5286 76.288 87.1953 66.1213C84.6953 66.6213 44.6953 66.6213 42.1953 67.6213C40.1953 68.4213 39.362 85.9547 39.1953 94.6213C45.1953 94.9547 58.8953 95.3213 65.6953 94.1213C72.4953 92.9213 74.862 95.288 75.1953 96.6213C60.7953 102.221 41.8619 99.9547 34.1953 98.1213Z" stroke="black" stroke-width="0.1"/>
<path d="M156.195 93.1213C153.395 89.1213 157.695 56.6213 159.695 46.6213C160.048 44.8561 163.195 47.6213 163.195 49.6213C160.395 60.8213 160.029 78.9547 160.195 87.1213C162.195 86.788 168.795 84.1213 179.195 72.1213C192.195 57.1213 190.695 53.6213 191.695 49.6213C192.695 45.6213 196.195 46.6213 195.195 49.6213C194.395 52.0213 193.805 65.7609 193.195 76.1213C192.695 84.6213 193.495 101.221 190.695 97.6213C187.895 94.0213 192.216 57.58 190.695 60.6213C184.695 72.6213 159.695 98.1213 156.195 93.1213Z" stroke="black" stroke-width="0.1"/>
</svg>
