<svg width="40" height="38" viewBox="0 0 40 38" fill="none" xmlns="http://www.w3.org/2000/svg">
<path d="M0 19.9804C-2.20518e-05 9.14858 8.25264 -0.297411 19.371 0.0071678C29.9343 0.296539 37.7516 8.9093 37.7358 19.0177C37.7199 29.2325 29.6016 37.9769 18.9228 38C8.4954 38.0224 2.03063e-05 29.9547 0 19.9804Z" fill="#787878"/>
<path d="M9.9541 22.596C7.93462 20.8351 8.40854 17.0859 8.89794 15.4314C9.3318 13.9648 11.1141 11.8098 13.9487 10.6466C15.9104 9.84151 18.3763 9.51153 21.248 10.2136L22.5018 10.52C28.8545 12.0717 32.6968 12.9894 33.9623 12.9415C32.6736 14.1324 30.3666 16.6045 28.7059 18.4786C28.2471 18.9963 27.8377 19.4684 27.5126 19.8552C26.584 20.9604 25.0285 22.2252 23.2051 23.0246C21.496 23.7739 19.5515 24.1144 17.6673 23.5311C14.5518 22.5667 11.227 22.5059 9.9541 22.596Z" fill="white"/>
<path d="M33.9623 12.9415C32.3849 13.2528 28.7791 13.9807 26.9748 14.4014C25.8578 14.6618 24.8529 14.8407 23.4928 15.1088M8.486 27.5594C8.34256 26.105 9.2481 23.944 9.95414 22.5959C10.5015 21.5509 11.8136 19.741 13.7594 18.2986M13.7594 18.2986C14.0295 16.432 14.4456 12.2885 13.9487 10.6465M13.7594 18.2986C14.3736 17.8432 15.0511 17.4245 15.7875 17.0779M15.7875 17.0779C16.3961 16.7916 17.045 16.5546 17.7318 16.387C18.9853 16.0812 20.041 15.8379 20.953 15.6374M15.7875 17.0779C16.982 17.4247 19.5188 18.4839 20.1105 19.9465C20.7022 21.4091 22.4201 22.608 23.2052 23.0246M20.953 15.6374C21.6911 14.4082 23.0342 11.6638 22.5019 10.52M20.953 15.6374C21.9467 15.419 22.7699 15.2513 23.4928 15.1088M23.4928 15.1088C24.4605 15.4214 26.5236 16.235 27.0342 16.9884C27.5447 17.7417 28.3614 18.2957 28.7059 18.4786" stroke="black" stroke-width="0.1"/>
</svg>
