<svg width="101" height="100" viewBox="0 0 101 100" fill="none" xmlns="http://www.w3.org/2000/svg">
<circle cx="51" cy="50" r="50" fill="white"/>
<path d="M19.1073 40.1817C23.058 38.8726 26.2405 41.2726 27.3379 42.6362C22.7288 50.4908 12.2485 51.3635 7.58448 50.8181C7.58448 48.3635 5.93836 47.5455 4.29224 47.5455C2.64612 47.5455 1 48.3636 1 50C1 51.6364 2.64612 52.4545 4.29224 52.4545C5.60913 52.4545 5.93836 53 5.93836 53.2727C6.48707 54.3636 8.24293 56.8727 10.8767 58.1818C13.5105 59.4909 16.3638 59.8182 17.4612 59.8182C16.6381 60.6364 10.8767 61.4545 14.169 61.4545C16.8027 61.4545 21.8508 63.0909 24.0457 63.9091C30.6302 66.3636 35.5685 65.5455 37.2146 65.5455C38.7303 65.5455 39.4095 64.4545 39.6838 63.9091C40.5069 64.7273 41.9884 66.3636 41.3299 66.3636C40.5069 66.3636 37.2146 67.1818 37.2146 68C37.2146 68.8182 38.0377 70.4545 42.976 71.2727C46.9267 71.9273 48.4631 69.3636 48.7375 68C52.6882 66.6909 63.5525 70.7273 68.4909 72.9091C70.0593 73.5087 72.4446 74.3721 74.8492 75.1512C77.9127 76.1439 81.0073 77 82.4829 77C85.1167 77 82.4829 75.3636 80.8368 74.5455C81.9342 74.8182 84.4583 75.3636 85.7752 75.3636C87.4213 75.3636 87.4213 74.5455 86.5982 73.7273C86.2198 73.3511 84.6239 72.8021 83.0897 72.2391C85.3566 72.7352 89.5612 73.5636 88.2443 72.9091C87.5171 72.5476 87.1747 71.6705 87.1063 70.9115C88.0251 70.9062 88.7917 70.9986 89.0674 71.2727C89.7258 71.9273 89.1219 70.6858 88.7377 69.9833C91.1684 70.6554 92.4776 71.1555 93.1827 70.4545C93.5817 70.0579 92.6266 69.6612 91.5366 69.1714C91.5366 68.7064 95.6519 69.6363 94.8288 68.8182C94.1704 68.1636 94.0058 67.1039 94.0058 66.6558C95.2047 66.8008 95.886 67.3212 96.7853 67.5C96.3853 67.2728 96.4291 66.673 95.9491 66.3636C96.6731 66.0909 97.9564 65.5454 97.298 65.5454C96.6395 65.5454 95.9262 64.9217 95.6519 64.6099C97.2457 64.826 98.487 64.4906 97.5 64C96.1831 63.3455 96.3022 62.8895 96.2158 62.3796C96.9706 62.3007 97.6676 62.2727 98.1211 62.2727C97.1877 61.7426 95.8008 60.9161 94.6217 60.1314C96.3368 60.2997 99.438 60.4727 98.1211 59.8182C97.8154 59.6662 97.4964 59.4855 97.1789 59.2911C97.493 59.1941 98.1211 58.8363 98.1211 58.1818C98.1211 57.5273 97.0236 57.2615 96.4749 57.2105C97.6181 57.0467 98.6333 56.8545 98.9441 56.5455C99.2545 56.2369 98.2361 56.0375 96.7853 55.9128C97.7792 55.3055 98.1211 54.7454 98.1211 54.0909C98.1211 53.8632 97.7889 53.7609 97.298 53.7358C98.2871 52.7972 96.9874 52.2411 96.214 52.0804C96.6931 51.3938 96.8735 50.8182 96.4749 50.8182C96.3849 50.8182 96.2425 50.8335 96.0616 50.8599C97.7062 48.9297 96.0352 48.6583 94.9941 48.7639C95.8282 47.8813 96.4749 47.0558 96.4749 46.7273C96.4749 46.4525 95.9182 46.4545 95.2097 46.5474C96.7323 44.44 94.7262 44.4487 93.5328 44.7166C94.0325 43.5873 94.3611 42.473 94.0058 42.6363C93.893 42.6882 93.643 42.7665 93.3065 42.8605C93.9668 41.7875 91.8905 42.178 91.8518 42.2407C92.1354 41.7857 92.3596 41.3208 92.3596 41C92.0853 40.7273 91.2074 40.5092 89.8905 41.8182C90.034 41.5328 90.1977 41.2025 90.3665 40.8552C91.1653 39.2116 92.0802 37.1869 91.5366 37.7273C91.1967 38.0651 90.2576 38.7081 89.2398 39.3637C89.731 37.4546 90.5489 33.9637 89.8905 35.2728C89.7498 35.5525 89.5452 35.8273 89.3012 36.0909C89.1855 34.1273 87.9997 34.7273 87.4213 35.2728C88.0797 33.9637 87.1469 34.1819 86.5982 34.4546C87.2508 33.8059 87.3252 30.5026 87.3252 30.5026C87.3252 30.5026 86.9391 30.6735 86.5982 31.1819C86.5982 30.3059 86.0892 29.852 86.0892 29.852C86.0892 29.852 85.256 30.0616 84.9521 30.3637C84.9521 29.9808 84.7733 29.8092 84.7733 29.8092C84.7733 29.8092 84.0164 30.6029 83.7276 31.1819C84.0145 30.1136 84.2352 29.1385 84.2833 28.5358C84.3146 28.1436 84.2729 27.9091 84.129 27.9091C83.6137 27.6826 83.1644 28.1938 83.0043 28.4777C82.8324 28.3068 82.4829 26.1096 82.4829 26.1096C82.4829 26.1096 80.4531 25.26 80.3277 25.7312C80.2748 25.1934 80.0137 24.6364 80.0137 24.6364C80.0137 24.6364 79.7527 24.5247 79.5431 24.5785C79.3703 24.3071 78.6615 23.9482 78.6615 23.9482C78.6615 23.9482 77.6 23.9116 76.8622 24.3712C76.6978 24.1372 75.8984 23.839 75.8984 23.839C75.8984 23.839 74.8951 23.9974 74.2523 24.6363V23.8182C74.2523 23.3309 73.7004 23.5843 72.9047 24.2072C72.8052 24.3502 72.4416 24.4727 71.7831 23.8182C71.6175 23.6535 71.4279 23.5823 71.2299 23.5757C70.6407 23.5561 69.9773 24.1091 69.6506 24.4778C69.5443 24.2725 69.4317 24.0523 69.314 23.8182C68.6555 22.5091 67.4573 23.7125 66.9406 24.4778C66.5959 23.6053 66.0217 23 66.0217 23C66.0217 23 65.2938 23.6112 64.7549 24.4778L63.4478 23C63.4478 23 62.3722 23.8839 62.2983 24.7349C61.8604 24.0054 61.0834 23 61.0834 23C61.0834 23 59.7391 23.8182 59.4784 24.6364C59.0967 24.1395 58.6142 23.8182 58.6142 23.8182C58.6142 23.8182 57.974 25.7878 57.8551 27.5263C57.8337 27.3812 57.4619 26.7636 56.145 25.4545C54.8281 24.1455 54.1807 24.9091 54.0216 25.4545C53.1095 25.4545 52.0297 24.4733 52.0297 24.4733C52.0297 24.4733 51.3805 25.4545 50.6572 26.2727C49.9647 25.5678 48.7375 25.4545 48.7375 25.4545C48.7375 25.4545 48.2173 26.1408 48.2444 26.7948C47.8601 26.3481 46.2683 25.4545 46.2683 25.4545C46.2683 25.4545 46.0891 27.6364 46.411 28.7273C46.1614 28.3385 45.8418 27.8058 45.4452 27.0909C44.4399 25.2783 43.9289 26.6259 43.7991 27.5263C43.4854 27.3521 43.2065 27.2055 42.976 27.0909C42.2885 26.7492 42.0129 27.4782 41.933 28.4531C41.285 27.9091 40.3625 27.8359 39.6838 26.9278C39.6838 26.9278 38.7931 27.5263 38.362 28.4531C38.2263 28.4837 38.116 28.5715 38.0377 28.7273C37.3792 28.0727 36.3916 27.9091 36.3916 27.9091C36.3916 28.5636 34.7767 29.2708 33.9693 29.5425L30.1915 28.1923C30.0177 28.8846 30.0872 30.7664 29.6702 31.1818C29.2532 31.5972 26.5426 30.8396 25.5 30.6055C24.899 30.6816 24.3556 30.8737 24.0457 31.1818C24.1333 31.4964 24.0822 32.6218 24.0457 33.1452C21.4551 32.4589 18.8199 32.2662 19.9304 32.8181C21.2473 33.4727 21.0278 34.1817 20.7534 34.4544C17.4612 33.6363 13.3459 38.5454 17.4612 36.909C20.7534 35.5999 23.2226 37.4545 24.0457 38.5454H20.7534C18.1196 38.5454 18.5586 39.6362 19.1073 40.1817Z" fill="#941D9A" stroke="black" stroke-width="0.1"/>
</svg>
