<svg width="44" height="30" viewBox="0 0 44 30" fill="none" xmlns="http://www.w3.org/2000/svg">
<path d="M-4.58386e-05 1.42343C-4.5746e-05 -0.695109 9.49988 0.0419788 22.9999 0.541984C30.2396 0.810125 41.2679 1.49279 41.2679 3.77026C41.2679 6.04773 30.14 4.60907 22.9999 4.54196C9.64764 4.41647 -4.59312e-05 3.54198 -4.58386e-05 1.42343Z" fill="#202020"/>
<path d="M0.987609 14.1753C0.987609 12.8086 10.9678 12.1654 24.2709 13.6753C31.8033 14.5302 45.0657 15.3834 43.3796 17.0915C42.0308 18.458 31.7286 17.3558 24.2709 17.0915C10.8245 16.615 0.987609 15.542 0.987609 14.1753Z" fill="#202020"/>
<path d="M0.987609 26.4789C0.987609 24.542 10.9271 24.8852 24.2709 25.9788C32.0143 26.6135 43.9999 26.8339 43.9999 28.542C43.9999 30.542 31.9853 29.5844 24.2709 29.542C10.8105 29.468 0.987609 28.4157 0.987609 26.4789Z" fill="#202020"/>
</svg>
