<svg width="72" height="100" viewBox="0 0 72 100" fill="none" xmlns="http://www.w3.org/2000/svg">
<rect width="72" height="100" fill="#94179D"/>
<path d="M10.204 80H8.97888V75.728H4.3197V80H3.10095V70.7578H4.3197V74.7314H8.97888V70.7578H10.204V80ZM16.4247 80C16.357 79.8646 16.302 79.6234 16.2596 79.2764C15.7137 79.8434 15.0621 80.127 14.3046 80.127C13.6275 80.127 13.071 79.9365 12.6351 79.5557C12.2035 79.1706 11.9877 78.6839 11.9877 78.0957C11.9877 77.3805 12.2585 76.8262 12.8002 76.4326C13.3461 76.0348 14.112 75.8359 15.098 75.8359H16.2406V75.2964C16.2406 74.8859 16.1179 74.5601 15.8724 74.3188C15.627 74.0734 15.2652 73.9507 14.787 73.9507C14.368 73.9507 14.0168 74.0565 13.7333 74.2681C13.4497 74.4797 13.308 74.7357 13.308 75.0361H12.1273C12.1273 74.6934 12.2479 74.3633 12.4891 74.0459C12.7346 73.7243 13.0647 73.4704 13.4794 73.2842C13.8983 73.098 14.3575 73.0049 14.8568 73.0049C15.6482 73.0049 16.2681 73.2038 16.7167 73.6016C17.1652 73.9951 17.398 74.5389 17.4149 75.2329V78.394C17.4149 79.0246 17.4953 79.526 17.6561 79.8984V80H16.4247ZM14.476 79.105C14.8441 79.105 15.1932 79.0098 15.5233 78.8193C15.8534 78.6289 16.0925 78.3813 16.2406 78.0767V76.6675H15.3202C13.8814 76.6675 13.162 77.0885 13.162 77.9307C13.162 78.2988 13.2847 78.5866 13.5302 78.7939C13.7756 79.0013 14.0909 79.105 14.476 79.105ZM22.0106 79.1685C22.4296 79.1685 22.7956 79.0415 23.1088 78.7876C23.4219 78.5337 23.5954 78.2163 23.6293 77.8354H24.7401C24.719 78.229 24.5835 78.6035 24.3339 78.959C24.0842 79.3145 23.7499 79.598 23.3309 79.8096C22.9162 80.0212 22.4761 80.127 22.0106 80.127C21.0754 80.127 20.3306 79.8159 19.7762 79.1938C19.2261 78.5675 18.951 77.7127 18.951 76.6294V76.4326C18.951 75.764 19.0738 75.1694 19.3192 74.6489C19.5647 74.1284 19.9159 73.7243 20.3729 73.4365C20.8342 73.1488 21.378 73.0049 22.0043 73.0049C22.7745 73.0049 23.4135 73.2355 23.9213 73.6968C24.4333 74.158 24.7063 74.7568 24.7401 75.4932H23.6293C23.5954 75.0488 23.4261 74.6849 23.1215 74.4014C22.821 74.1136 22.4486 73.9697 22.0043 73.9697C21.4076 73.9697 20.9442 74.1855 20.6141 74.6172C20.2883 75.0446 20.1254 75.6646 20.1254 76.4771V76.6992C20.1254 77.4906 20.2883 78.0999 20.6141 78.5273C20.94 78.9548 21.4055 79.1685 22.0106 79.1685ZM31.1639 74.084H28.8597V80H27.6854V74.084H25.4257V73.1318H31.1639V74.084ZM38.1083 76.6421C38.1083 77.6873 37.8692 78.5295 37.391 79.1685C36.9128 79.8075 36.2653 80.127 35.4486 80.127C34.6149 80.127 33.959 79.8625 33.4808 79.3335V82.6406H32.3065V73.1318H33.3793L33.4364 73.8936C33.9146 73.3011 34.579 73.0049 35.4296 73.0049C36.2548 73.0049 36.9065 73.3159 37.3846 73.938C37.8671 74.5601 38.1083 75.4255 38.1083 76.5342V76.6421ZM36.934 76.5088C36.934 75.7344 36.7689 75.1229 36.4388 74.6743C36.1088 74.2257 35.656 74.0015 35.0804 74.0015C34.3695 74.0015 33.8363 74.3167 33.4808 74.9473V78.229C33.8321 78.8553 34.3695 79.1685 35.0931 79.1685C35.656 79.1685 36.1024 78.9463 36.4325 78.502C36.7668 78.0534 36.934 77.389 36.934 76.5088ZM39.2953 76.5024C39.2953 75.8296 39.4265 75.2244 39.6888 74.687C39.9554 74.1496 40.3236 73.7349 40.7933 73.4429C41.2673 73.1509 41.8068 73.0049 42.412 73.0049C43.3472 73.0049 44.1026 73.3286 44.6781 73.9761C45.2579 74.6235 45.5477 75.4847 45.5477 76.5596V76.6421C45.5477 77.3107 45.4187 77.9116 45.1605 78.4448C44.9066 78.9738 44.5406 79.3864 44.0624 79.6826C43.5884 79.9788 43.0425 80.127 42.4247 80.127C41.4937 80.127 40.7383 79.8032 40.1586 79.1558C39.583 78.5083 39.2953 77.6514 39.2953 76.585V76.5024ZM40.476 76.6421C40.476 77.4038 40.6516 78.0153 41.0028 78.4766C41.3583 78.9378 41.8322 79.1685 42.4247 79.1685C43.0214 79.1685 43.4953 78.9357 43.8466 78.4702C44.1978 78.0005 44.3734 77.3446 44.3734 76.5024C44.3734 75.7492 44.1936 75.1398 43.8339 74.6743C43.4784 74.2046 43.0044 73.9697 42.412 73.9697C41.8322 73.9697 41.3646 74.2004 41.0092 74.6616C40.6537 75.1229 40.476 75.783 40.476 76.6421ZM51.4637 73.1318H52.6381V80H51.4637V74.9917L48.2963 80H47.1219V73.1318H48.2963V78.1465L51.4637 73.1318ZM51.7811 70.6309C51.7811 71.1429 51.6055 71.5555 51.2543 71.8687C50.9073 72.1776 50.4502 72.332 49.8832 72.332C49.3161 72.332 48.857 72.1755 48.5057 71.8623C48.1545 71.5492 47.9789 71.1387 47.9789 70.6309H48.9374C48.9374 70.9271 49.0178 71.1598 49.1786 71.3291C49.3394 71.4941 49.5743 71.5767 49.8832 71.5767C50.1794 71.5767 50.41 71.4941 50.5751 71.3291C50.7443 71.1641 50.829 70.9313 50.829 70.6309H51.7811ZM56.6625 77.0737H55.8055V80H54.6249V73.1318H55.8055V76.0391H56.5736L58.8842 73.1318H60.306L57.5892 76.4326L60.5345 80H59.0428L56.6625 77.0737ZM65.9872 73.1318H67.1615V80H65.9872V74.9917L62.8197 80H61.6454V73.1318H62.8197V78.1465L65.9872 73.1318Z" fill="white"/>
<path fill-rule="evenodd" clip-rule="evenodd" d="M43.0374 14.0458L48.8737 17.1094L46.402 20.5846C47.8614 21.7068 49.1154 23.0662 50.1028 24.5978L53.6437 22.1162L56.1196 27.3245L51.975 28.727C52.267 29.7215 52.7546 32.4054 52.3689 35.1854L56.7888 35.5967L55.1003 41.4178L50.9812 39.6717C50.2676 41.1376 49.3292 42.4675 48.2056 43.6242L51.5708 46.5955L47.1461 50.1134L44.7777 46.2834C43.2388 47.1672 41.5245 47.8093 39.6848 48.1629L40.509 52.6388L34.188 53L34.9155 48.4135C33.8034 48.3427 31.0815 47.9212 29.0909 46.801L26.6028 50.8874L20.5978 46.4564L24.5034 43.4388C23.1481 42.0116 22.0626 40.3344 21.3278 38.4783L16.4891 39.9325L15.2113 32.8393L20.256 33.0518C20.2551 32.9809 20.2548 32.9101 20.255 32.8393C20.261 30.5165 20.8243 28.2891 21.8199 26.2801L17.4373 24.1257L22.1781 18.1632L25.396 21.5417C26.6648 20.3782 28.1207 19.4052 29.7081 18.6774L27.7501 14.6459L34.1165 13C34.2891 14.2458 34.4955 15.7179 34.7177 17.2942C35.4769 17.2125 36.2499 17.1844 37.0324 17.2141C38.7016 17.2775 40.3029 17.5873 41.8007 18.1056L43.0374 14.0458ZM44.288 33.0518C44.288 28.7362 40.8386 25.086 36.3867 25.086C31.9348 25.086 28.4854 28.7362 28.4854 33.0518C28.4854 37.3674 31.9348 41.0176 36.3867 41.0176C40.8386 41.0176 44.288 37.3674 44.288 33.0518Z" fill="#C4C4C4"/>
</svg>
