<svg width="72" height="100" viewBox="0 0 72 100" fill="none" xmlns="http://www.w3.org/2000/svg">
<rect width="72" height="100" fill="#94179D"/>
<path d="M15.4408 71.127H10.642V80H9.32263V70.0469H15.4408V71.127ZM21.2719 72.6035V80H20.0004V73.6494H17.4847L17.3344 76.418C17.2523 77.6895 17.0381 78.5986 16.6918 79.1455C16.35 79.6924 15.8054 79.9772 15.058 80H14.5521V78.8857L14.9144 78.8584C15.3246 78.8128 15.6185 78.5758 15.7963 78.1475C15.974 77.7191 16.0879 76.9261 16.1381 75.7686L16.2748 72.6035H21.2719ZM27.8685 80C27.7956 79.8542 27.7364 79.5944 27.6908 79.2207C27.1029 79.8314 26.4011 80.1367 25.5853 80.1367C24.8562 80.1367 24.2569 79.9316 23.7875 79.5215C23.3226 79.1068 23.0902 78.5827 23.0902 77.9492C23.0902 77.179 23.3819 76.582 23.9652 76.1582C24.5531 75.7298 25.378 75.5156 26.4398 75.5156H27.6703V74.9346C27.6703 74.4925 27.5381 74.1416 27.2738 73.8818C27.0095 73.6175 26.6198 73.4854 26.1049 73.4854C25.6537 73.4854 25.2754 73.5993 24.9701 73.8271C24.6648 74.055 24.5121 74.3307 24.5121 74.6543H23.2406C23.2406 74.2852 23.3705 73.9297 23.6302 73.5879C23.8946 73.2415 24.25 72.9681 24.6967 72.7676C25.1478 72.5671 25.6423 72.4668 26.1801 72.4668C27.0323 72.4668 27.6999 72.681 28.183 73.1094C28.6661 73.5332 28.9167 74.1188 28.9349 74.8662V78.2705C28.9349 78.9495 29.0215 79.4896 29.1947 79.8906V80H27.8685ZM25.7699 79.0361C26.1664 79.0361 26.5424 78.9336 26.8978 78.7285C27.2533 78.5234 27.5108 78.2568 27.6703 77.9287V76.4111H26.6791C25.1296 76.4111 24.3549 76.8646 24.3549 77.7715C24.3549 78.168 24.487 78.4779 24.7513 78.7012C25.0157 78.9245 25.3552 79.0361 25.7699 79.0361ZM31.0336 80V72.6035H33.9183C34.9027 72.6035 35.6569 72.7767 36.181 73.123C36.7097 73.4648 36.974 73.9684 36.974 74.6338C36.974 74.9756 36.8715 75.2855 36.6664 75.5635C36.4613 75.8369 36.1582 76.0465 35.7572 76.1924C36.2038 76.2972 36.5616 76.5023 36.8304 76.8076C37.1039 77.113 37.2406 77.4775 37.2406 77.9014C37.2406 78.5804 36.9899 79.0999 36.4886 79.46C35.9919 79.82 35.2878 80 34.3763 80H31.0336ZM32.2982 76.7529V78.9814H34.39C34.9187 78.9814 35.3129 78.8835 35.5726 78.6875C35.837 78.4915 35.9691 78.2158 35.9691 77.8604C35.9691 77.1221 35.4268 76.7529 34.3422 76.7529H32.2982ZM32.2982 75.7412H33.932C35.1169 75.7412 35.7094 75.3949 35.7094 74.7021C35.7094 74.0094 35.1488 73.6517 34.0277 73.6289H32.2982V75.7412ZM44.9584 80H43.6937V76.8418H40.2963V80H39.0248V72.6035H40.2963V75.8096H43.6937V72.6035H44.9584V80ZM51.5619 80C51.489 79.8542 51.4297 79.5944 51.3842 79.2207C50.7963 79.8314 50.0944 80.1367 49.2787 80.1367C48.5495 80.1367 47.9502 79.9316 47.4808 79.5215C47.016 79.1068 46.7836 78.5827 46.7836 77.9492C46.7836 77.179 47.0752 76.582 47.6586 76.1582C48.2465 75.7298 49.0713 75.5156 50.1332 75.5156H51.3636V74.9346C51.3636 74.4925 51.2315 74.1416 50.9672 73.8818C50.7028 73.6175 50.3132 73.4854 49.7982 73.4854C49.347 73.4854 48.9688 73.5993 48.6635 73.8271C48.3581 74.055 48.2054 74.3307 48.2054 74.6543H46.934C46.934 74.2852 47.0638 73.9297 47.3236 73.5879C47.5879 73.2415 47.9434 72.9681 48.39 72.7676C48.8412 72.5671 49.3357 72.4668 49.8734 72.4668C50.7256 72.4668 51.3933 72.681 51.8763 73.1094C52.3594 73.5332 52.6101 74.1188 52.6283 74.8662V78.2705C52.6283 78.9495 52.7149 79.4896 52.8881 79.8906V80H51.5619ZM49.4633 79.0361C49.8597 79.0361 50.2357 78.9336 50.5912 78.7285C50.9467 78.5234 51.2041 78.2568 51.3636 77.9287V76.4111H50.3724C48.823 76.4111 48.0482 76.8646 48.0482 77.7715C48.0482 78.168 48.1804 78.4779 48.4447 78.7012C48.709 78.9245 49.0485 79.0361 49.4633 79.0361ZM60.264 72.6035V80H58.9926V77.1221H57.0853L55.3422 80H53.975L55.8344 76.9307C55.3604 76.7575 54.9958 76.4909 54.7406 76.1309C54.4899 75.7663 54.3646 75.3424 54.3646 74.8594C54.3646 74.1849 54.6176 73.6426 55.1234 73.2324C55.6293 72.8177 56.306 72.6081 57.1537 72.6035H60.264ZM55.6361 74.873C55.6361 75.2331 55.7592 75.5247 56.0052 75.748C56.2513 75.9668 56.5772 76.0785 56.9828 76.083H58.9926V73.6289H57.1742C56.7048 73.6289 56.3311 73.7451 56.0531 73.9775C55.7751 74.2054 55.6361 74.5039 55.6361 74.873Z" fill="white"/>
<path d="M8.11267 48.0667V22.9333C8.11267 21.6444 8.75691 21 10.0454 21H60.9405C62.229 21 62.8732 21.6444 62.8732 22.9333V48.0667C62.8732 49.3556 62.229 50 60.9405 50H10.0454C8.75691 50 8.11267 49.3556 8.11267 48.0667Z" fill="#C082C3"/>
<path d="M26.2392 26.8H43.4703M13.1564 34.6122H57.8295M13.1564 42.75H57.8295" stroke="black" stroke-width="0.4"/>
</svg>
