<svg width="72" height="100" viewBox="0 0 72 100" fill="none" xmlns="http://www.w3.org/2000/svg">
<rect width="72" height="100" fill="#94179D"/>
<path d="M56.5634 33C56.5634 44.0457 47.483 53 36.2817 53C25.0804 53 16 44.0457 16 33C16 21.9543 25.0804 13 36.2817 13C47.483 13 56.5634 21.9543 56.5634 33Z" fill="#C082C3"/>
<path d="M28.4957 31.2007C26.3693 30.4668 22.2938 30.3707 20.5219 30.4144C20.0966 25.4869 21.9529 23.5475 25.4391 21.7651C29.0273 19.9303 31.9244 18.5412 36.0707 18.2267C40.2171 17.9122 42.6829 18.7677 44.709 21.7651C46.2197 24 45.9316 24.8316 49.2274 27.6623C53.3472 31.2007 52.4169 33.9527 52.4169 34.608C52.4169 35.2632 51.6196 36.3116 49.2274 35.5253C47.7459 35.0383 44.7351 34.6016 42.184 34.3086C40.616 34.1285 39.2217 34.0026 38.4629 33.9527C36.8923 33.8495 33.2596 32.7701 30.4891 31.8682C29.7431 31.6253 29.0596 31.3953 28.4957 31.2007Z" fill="#E9EAE9"/>
<path d="M38.4629 33.9528C36.8924 33.8495 33.2596 32.7702 30.4891 31.8682C29.7361 33.6988 28.2299 37.7008 28.2299 39.0637C28.2299 40.7674 28.2299 44.3057 28.097 45.2231C27.9641 46.1404 28.8944 47.8441 32.0839 47.713C35.2734 47.582 34.6089 47.1888 36.2037 47.1888C37.4795 47.1888 40.2792 47.4509 41.5195 47.582C42.5384 47.6257 44.4698 46.9267 44.0445 43.7815C43.513 39.85 42.3169 35.5818 42.184 34.3086C40.616 34.1285 39.2217 34.0027 38.4629 33.9528Z" fill="#C3C3C3"/>
<path d="M17.6816 63.0469V73H16.3691V64.127H12.8008L12.623 68.0713C12.5547 69.3929 12.418 70.3864 12.2129 71.0518C12.0124 71.7171 11.7161 72.207 11.3242 72.5215C10.9323 72.8314 10.4082 72.9909 9.75195 73H9.32129V71.9268L9.59473 71.9131C10.0186 71.8812 10.3444 71.7445 10.5723 71.5029C10.8001 71.2568 10.9733 70.8672 11.0918 70.334C11.2103 69.8008 11.2946 68.9805 11.3447 67.873L11.5498 63.0469H17.6816ZM24.6543 65.6035H25.9189V73H24.6543V67.6064L21.2432 73H19.9785V65.6035H21.2432V71.0039L24.6543 65.6035ZM33.5342 73H32.2627V70.3203C31.7067 70.4661 31.137 70.5391 30.5537 70.5391C29.6286 70.5391 28.9222 70.3021 28.4346 69.8281C27.9515 69.3542 27.7054 68.6797 27.6963 67.8047V65.5967H28.9609V67.8457C28.9837 68.9486 29.5146 69.5 30.5537 69.5C31.137 69.5 31.7067 69.4271 32.2627 69.2812V65.6035H33.5342V73ZM41.6074 73H40.3428V69.8418H36.9453V73H35.6738V65.6035H36.9453V68.8096H40.3428V65.6035H41.6074V73ZM45.0254 68.1533H46.9463C47.7848 68.1624 48.4479 68.3812 48.9355 68.8096C49.4232 69.238 49.667 69.819 49.667 70.5527C49.667 71.291 49.4163 71.8835 48.915 72.3301C48.4137 72.7767 47.7393 73 46.8916 73H43.7607V65.6035H45.0254V68.1533ZM52.3057 73H51.0342V65.6035H52.3057V73ZM45.0254 69.1855V71.9678H46.9053C47.3792 71.9678 47.7461 71.847 48.0059 71.6055C48.2656 71.3594 48.3955 71.0244 48.3955 70.6006C48.3955 70.1904 48.2679 69.8555 48.0127 69.5957C47.762 69.3314 47.4089 69.1947 46.9531 69.1855H45.0254ZM59.2988 65.6035H60.5635V73H59.2988V67.6064L55.8877 73H54.623V65.6035H55.8877V71.0039L59.2988 65.6035ZM59.6406 62.9102C59.6406 63.4616 59.4515 63.9059 59.0732 64.2432C58.6995 64.5758 58.2074 64.7422 57.5967 64.7422C56.986 64.7422 56.4915 64.5736 56.1133 64.2363C55.735 63.8991 55.5459 63.457 55.5459 62.9102H56.5781C56.5781 63.2292 56.6647 63.4798 56.8379 63.6621C57.0111 63.8398 57.264 63.9287 57.5967 63.9287C57.9157 63.9287 58.1641 63.8398 58.3418 63.6621C58.5241 63.4844 58.6152 63.2337 58.6152 62.9102H59.6406ZM12.2607 85.8486H11.3379V89H10.0664V81.6035H11.3379V84.7344H12.165L14.6533 81.6035H16.1846L13.2588 85.1582L16.4307 89H14.8242L12.2607 85.8486ZM22.084 89C22.0111 88.8542 21.9518 88.5944 21.9062 88.2207C21.3184 88.8314 20.6165 89.1367 19.8008 89.1367C19.0716 89.1367 18.4723 88.9316 18.0029 88.5215C17.5381 88.1068 17.3057 87.5827 17.3057 86.9492C17.3057 86.179 17.5973 85.582 18.1807 85.1582C18.7686 84.7298 19.5934 84.5156 20.6553 84.5156H21.8857V83.9346C21.8857 83.4925 21.7536 83.1416 21.4893 82.8818C21.2249 82.6175 20.8353 82.4854 20.3203 82.4854C19.8691 82.4854 19.4909 82.5993 19.1855 82.8271C18.8802 83.055 18.7275 83.3307 18.7275 83.6543H17.4561C17.4561 83.2852 17.5859 82.9297 17.8457 82.5879C18.11 82.2415 18.4655 81.9681 18.9121 81.7676C19.3633 81.5671 19.8577 81.4668 20.3955 81.4668C21.2477 81.4668 21.9154 81.681 22.3984 82.1094C22.8815 82.5332 23.1322 83.1188 23.1504 83.8662V87.2705C23.1504 87.9495 23.237 88.4896 23.4102 88.8906V89H22.084ZM19.9854 88.0361C20.3818 88.0361 20.7578 87.9336 21.1133 87.7285C21.4688 87.5234 21.7262 87.2568 21.8857 86.9287V85.4111H20.8945C19.3451 85.4111 18.5703 85.8646 18.5703 86.7715C18.5703 87.168 18.7025 87.4779 18.9668 87.7012C19.2311 87.9245 19.5706 88.0361 19.9854 88.0361ZM28.3799 82.0273C29.3096 82.0273 30.0524 82.3395 30.6084 82.9639C31.1689 83.5837 31.4492 84.4017 31.4492 85.418V85.5342C31.4492 86.2314 31.3148 86.8558 31.0459 87.4072C30.777 87.9541 30.3896 88.3802 29.8838 88.6855C29.3825 88.9863 28.8037 89.1367 28.1475 89.1367C27.154 89.1367 26.3542 88.8063 25.748 88.1455C25.1419 87.4801 24.8389 86.5892 24.8389 85.4727V84.8574C24.8389 83.3034 25.126 82.0684 25.7002 81.1523C26.279 80.2363 27.1312 79.6781 28.2568 79.4775C28.8949 79.3636 29.3255 79.2246 29.5488 79.0605C29.7721 78.8965 29.8838 78.6709 29.8838 78.3838H30.9229C30.9229 78.9535 30.793 79.3978 30.5332 79.7168C30.278 80.0358 29.8678 80.2614 29.3027 80.3936L28.3594 80.6055C27.6074 80.7832 27.0423 81.084 26.6641 81.5078C26.2904 81.9271 26.0465 82.4876 25.9326 83.1895C26.6025 82.4147 27.4183 82.0273 28.3799 82.0273ZM28.1338 83.0664C27.514 83.0664 27.0218 83.276 26.6572 83.6953C26.2926 84.11 26.1104 84.6865 26.1104 85.4248V85.5342C26.1104 86.3271 26.2926 86.9561 26.6572 87.4209C27.0264 87.8812 27.5231 88.1113 28.1475 88.1113C28.7764 88.1113 29.2731 87.8789 29.6377 87.4141C30.0023 86.9492 30.1846 86.2702 30.1846 85.377C30.1846 84.6797 30 84.1214 29.6309 83.7021C29.2663 83.2783 28.7673 83.0664 28.1338 83.0664ZM37.5332 81.6035H38.7979V89H37.5332V83.6064L34.1221 89H32.8574V81.6035H34.1221V87.0039L37.5332 81.6035ZM46.8711 89H45.6064V85.8418H42.209V89H40.9375V81.6035H42.209V84.8096H45.6064V81.6035H46.8711V89ZM51.9775 89.1367C50.9749 89.1367 50.1592 88.8086 49.5303 88.1523C48.9014 87.4915 48.5869 86.6097 48.5869 85.5068V85.2744C48.5869 84.5407 48.7259 83.8867 49.0039 83.3125C49.2865 82.7337 49.6784 82.2826 50.1797 81.959C50.6855 81.6309 51.2324 81.4668 51.8203 81.4668C52.7819 81.4668 53.5293 81.7835 54.0625 82.417C54.5957 83.0505 54.8623 83.9574 54.8623 85.1377V85.6641H49.8516C49.8698 86.3932 50.0817 86.9834 50.4873 87.4346C50.8975 87.8812 51.417 88.1045 52.0459 88.1045C52.4925 88.1045 52.8708 88.0133 53.1807 87.8311C53.4906 87.6488 53.7617 87.4072 53.9941 87.1064L54.7666 87.708C54.1468 88.6605 53.2171 89.1367 51.9775 89.1367ZM51.8203 82.5059C51.3099 82.5059 50.8815 82.6927 50.5352 83.0664C50.1888 83.4355 49.9746 83.9551 49.8926 84.625H53.5977V84.5293C53.5612 83.8867 53.388 83.39 53.0781 83.0391C52.7682 82.6836 52.349 82.5059 51.8203 82.5059ZM61.7461 82.6289H59.2646V89H58V82.6289H55.5664V81.6035H61.7461V82.6289Z" fill="white"/>
</svg>
