<svg width="72" height="100" viewBox="0 0 72 100" fill="none" xmlns="http://www.w3.org/2000/svg">
<rect width="72" height="100" fill="#94179D"/>
<path d="M55.7747 33C55.7747 44.0457 46.6943 53 35.493 53C24.2917 53 15.2113 44.0457 15.2113 33C15.2113 21.9543 24.2917 13 35.493 13C46.6943 13 55.7747 21.9543 55.7747 33Z" fill="#C082C3"/>
<path d="M25.3521 24.2206C27.1775 21.8206 32.4507 21.0206 32.8564 21.0206C35.5606 20.8872 41.4964 21.3406 43.6057 24.2206C45.715 27.1006 46.2423 29.8206 46.2423 30.8206C44.2141 28.8206 41.5385 28.1483 39.1437 28.6206C37.1155 29.0206 35.3578 30.9539 34.6817 32.2206C34.1959 31.7415 31.6013 31.5493 29.2057 31.5152C27.6004 31.4923 26.0845 31.5403 25.3521 31.6206C23.5268 31.8206 22.9183 30.8206 22.9183 29.4206C22.9183 28.0206 23.5268 26.6206 25.3521 24.2206Z" fill="#DFDFDF"/>
<path d="M34.6817 32.2206C33.7082 33.8206 33.6001 35.8206 33.6677 36.6206C34.2823 36.5397 35.6421 36.4246 37.5212 36.3821C38.1296 36.3654 37.3184 39.6206 37.5212 41.4206C37.594 42.0667 37.7512 42.5759 37.9268 42.9591C36.6288 43.7264 35.9238 43.8768 34.0733 43.4206C32.2227 42.9643 30.4226 43.5794 29.6113 43.2C28.8001 42.8206 29.8141 39.3406 29.8141 37.4206C29.8141 35.5006 29.4085 32.6836 29.2057 31.5152C31.6014 31.5493 34.196 31.7415 34.6817 32.2206Z" fill="#B1B1B1"/>
<path d="M37.5211 36.3821C38.7422 36.3545 40.1826 36.3575 41.7803 36.4206C43.3508 36.4825 44.6275 36.3666 45.6338 36.1702C45.431 36.2116 46.3892 38.2606 46.2422 39.6206C46.0658 41.2534 45.8366 42.4206 44.4169 43.4206C43.2811 44.2206 40.1033 45.483 38.5352 43.8206C38.252 43.5204 38.1425 43.4298 37.9267 42.9591C37.7511 42.5759 37.5939 42.0667 37.5211 41.4206C37.3183 39.6206 38.1296 36.3654 37.5211 36.3821Z" fill="#C3C3C3"/>
<path d="M39.1437 28.6206C37.1155 29.0206 35.3577 30.9539 34.6817 32.2206C33.7082 33.8206 33.6 35.8206 33.6676 36.6206C34.2823 36.5398 35.642 36.4247 37.5211 36.3822C38.7422 36.3545 40.1826 36.3576 41.7803 36.4206C43.3509 36.4825 44.6275 36.3666 45.6338 36.1702C47.2264 35.8595 48.1418 35.3474 48.4732 35.0206C48.1352 34.4873 47.8849 32.4405 46.2422 30.8206C44.2141 28.8206 41.5385 28.1483 39.1437 28.6206Z" fill="#E9EAE9"/>
<path d="M21.2653 82.4404H19.9596V80H12.816V82.4473H11.5035L11.4967 78.9268H12.3102C12.7386 78.4437 13.0781 77.7965 13.3287 76.9854C13.5839 76.1696 13.7434 75.2764 13.8073 74.3057L14.026 70.0469H19.9801V78.9268H21.2789L21.2653 82.4404ZM13.8073 78.9268H18.6608V71.127H15.2906L15.1471 74.0527C15.0878 75.1966 14.9352 76.1719 14.6891 76.9785C14.4476 77.7852 14.1536 78.4346 13.8073 78.9268ZM28.8873 76.3838C28.8873 77.5094 28.6298 78.4163 28.1149 79.1045C27.5999 79.7926 26.9026 80.1367 26.0231 80.1367C25.1253 80.1367 24.4189 79.8519 23.9039 79.2822V82.8438H22.6393V72.6035H23.7946L23.8561 73.4238C24.3711 72.7858 25.0865 72.4668 26.0026 72.4668C26.8912 72.4668 27.5931 72.8018 28.108 73.4717C28.6276 74.1416 28.8873 75.0736 28.8873 76.2676V76.3838ZM27.6227 76.2402C27.6227 75.4062 27.4449 74.7477 27.0895 74.2646C26.734 73.7816 26.2464 73.54 25.6266 73.54C24.861 73.54 24.2867 73.8796 23.9039 74.5586V78.0928C24.2822 78.7673 24.861 79.1045 25.6403 79.1045C26.2464 79.1045 26.7272 78.8652 27.0826 78.3867C27.4427 77.9036 27.6227 77.1882 27.6227 76.2402ZM32.8385 78.1475L34.5612 72.6035H35.9147L32.941 81.1416C32.4808 82.3721 31.7493 82.9873 30.7467 82.9873L30.5074 82.9668L30.0358 82.8779V81.8525L30.3776 81.8799C30.8059 81.8799 31.1386 81.7933 31.3756 81.6201C31.6171 81.4469 31.8154 81.1302 31.9703 80.6699L32.2506 79.918L29.6119 72.6035H30.9928L32.8385 78.1475ZM41.1168 74.627C41.1168 74.2806 40.9847 74.0072 40.7203 73.8066C40.456 73.6016 40.0937 73.499 39.6334 73.499C39.1868 73.499 38.8131 73.6152 38.5123 73.8477C38.2161 74.0801 38.068 74.3535 38.068 74.668H36.8102C36.8102 74.0254 37.0791 73.499 37.6168 73.0889C38.1546 72.6787 38.8268 72.4736 39.6334 72.4736C40.4993 72.4736 41.1738 72.6605 41.6569 73.0342C42.1399 73.4033 42.3815 73.932 42.3815 74.6201C42.3815 74.9528 42.2812 75.2581 42.0807 75.5361C41.8802 75.8141 41.5953 76.0352 41.2262 76.1992C42.0875 76.4909 42.5182 77.0651 42.5182 77.9219C42.5182 78.6009 42.2561 79.1387 41.7321 79.5352C41.208 79.9316 40.5084 80.1299 39.6334 80.1299C38.7812 80.1299 38.0771 79.9225 37.5211 79.5078C36.9697 79.0885 36.694 78.5234 36.694 77.8125H37.9518C37.9518 78.1725 38.1113 78.4824 38.4303 78.7422C38.7539 78.9974 39.1549 79.125 39.6334 79.125C40.1165 79.125 40.5061 79.0133 40.8024 78.79C41.0986 78.5667 41.2467 78.2773 41.2467 77.9219C41.2467 77.5072 41.1214 77.2109 40.8707 77.0332C40.6246 76.8509 40.2395 76.7598 39.7155 76.7598H38.4508V75.6934H39.8248C40.6862 75.6706 41.1168 75.3151 41.1168 74.627ZM45.5397 75.1533H47.4606C48.2991 75.1624 48.9622 75.3812 49.4498 75.8096C49.9375 76.238 50.1813 76.819 50.1813 77.5527C50.1813 78.291 49.9306 78.8835 49.4293 79.3301C48.928 79.7767 48.2535 80 47.4059 80H44.275V72.6035H45.5397V75.1533ZM45.5397 76.1855V78.9678H47.4196C47.8935 78.9678 48.2604 78.847 48.5201 78.6055C48.7799 78.3594 48.9098 78.0244 48.9098 77.6006C48.9098 77.1904 48.7822 76.8555 48.527 76.5957C48.2763 76.3314 47.9231 76.1947 47.4674 76.1855H45.5397ZM57.4137 72.6035V80H56.1422V77.1221H54.235L52.4918 80H51.1246L52.984 76.9307C52.5101 76.7575 52.1455 76.4909 51.8903 76.1309C51.6396 75.7663 51.5143 75.3424 51.5143 74.8594C51.5143 74.1849 51.7672 73.6426 52.2731 73.2324C52.7789 72.8177 53.4557 72.6081 54.3033 72.6035H57.4137ZM52.7858 74.873C52.7858 75.2331 52.9088 75.5247 53.1549 75.748C53.401 75.9668 53.7268 76.0785 54.1324 76.083H56.1422V73.6289H54.3239C53.8545 73.6289 53.4808 73.7451 53.2028 73.9775C52.9248 74.2054 52.7858 74.5039 52.7858 74.873Z" fill="white"/>
</svg>
