<svg width="72" height="100" viewBox="0 0 72 100" fill="none" xmlns="http://www.w3.org/2000/svg">
<rect width="72" height="100" fill="#94179D"/>
<ellipse cx="36.2958" cy="33.5" rx="21.2958" ry="21.5" fill="#C082C3"/>
<path d="M38.3566 33.0667C38.3566 34.2779 36.5685 35.1806 35.6087 34.4538C34.7502 33.8038 34.7502 32.3296 35.6087 31.6796C35.821 31.5188 36.0738 31.4378 36.3388 31.4222M38.3566 33.0667C38.3566 32.1233 37.272 31.3671 36.3388 31.4222M38.3566 33.0667H46.5995M35.8699 18.88C35.6409 22.1184 35.7892 28.0954 36.3388 31.4222M35.8699 18.88L35.0181 21.03M35.8699 18.88L36.3388 21.03M46.5995 33.0667L45.2401 31.6796M46.5995 33.0667L45.2401 34.4538M36.2958 32.64C36.6788 32.6433 36.9142 32.8996 36.7647 33.0667C36.6532 33.1913 36.4073 33.1946 36.2958 33.07C36.1844 32.9454 36.1295 32.6386 36.2958 32.64Z" stroke="white" stroke-width="0.8"/>
<path d="M35.876 18H35.3311V14.3877L34.2383 14.7891V14.2969L35.791 13.7139H35.876V18ZM40.2588 18H37.4639V17.6104L38.9404 15.9697C39.1592 15.7217 39.3096 15.5205 39.3916 15.3662C39.4756 15.21 39.5176 15.0488 39.5176 14.8828C39.5176 14.6602 39.4502 14.4775 39.3154 14.335C39.1807 14.1924 39.001 14.1211 38.7764 14.1211C38.5068 14.1211 38.2969 14.1982 38.1465 14.3525C37.998 14.5049 37.9238 14.7178 37.9238 14.9912H37.3818C37.3818 14.5986 37.5078 14.2812 37.7598 14.0391C38.0137 13.7969 38.3525 13.6758 38.7764 13.6758C39.1729 13.6758 39.4863 13.7803 39.7168 13.9893C39.9473 14.1963 40.0625 14.4727 40.0625 14.8184C40.0625 15.2383 39.7949 15.7383 39.2598 16.3184L38.1172 17.5576H40.2588V18Z" fill="white"/>
<path d="M54.475 33.6635H54.8822C55.1381 33.6596 55.3392 33.5922 55.4857 33.4614C55.6322 33.3305 55.7054 33.1537 55.7054 32.9311C55.7054 32.4311 55.4564 32.1811 54.9584 32.1811C54.724 32.1811 54.5365 32.2485 54.3959 32.3832C54.2572 32.5161 54.1879 32.6928 54.1879 32.9135H53.6459C53.6459 32.5756 53.7689 32.2953 54.015 32.0727C54.2631 31.8481 54.5775 31.7358 54.9584 31.7358C55.3607 31.7358 55.6761 31.8422 55.9047 32.0551C56.1332 32.268 56.2474 32.5639 56.2474 32.9428C56.2474 33.1284 56.1869 33.308 56.0658 33.4819C55.9467 33.6557 55.7836 33.7856 55.5765 33.8715C55.8109 33.9457 55.9916 34.0688 56.1185 34.2407C56.2474 34.4125 56.3119 34.6225 56.3119 34.8705C56.3119 35.2534 56.1869 35.5571 55.9369 35.7817C55.6869 36.0063 55.3617 36.1186 54.9613 36.1186C54.5609 36.1186 54.2347 36.0102 53.9828 35.7934C53.7328 35.5766 53.6078 35.2905 53.6078 34.935H54.1527C54.1527 35.1596 54.226 35.3393 54.3724 35.4741C54.5189 35.6088 54.7152 35.6762 54.9613 35.6762C55.223 35.6762 55.4232 35.6078 55.5619 35.4711C55.7006 35.3344 55.7699 35.1381 55.7699 34.8823C55.7699 34.6342 55.6937 34.4438 55.5414 34.311C55.389 34.1782 55.1693 34.1098 54.8822 34.1059H54.475V33.6635Z" fill="white"/>
<path d="M37.0736 49.8514V50.3114H36.974C36.5521 50.3192 36.2162 50.4442 35.9662 50.6864C35.7162 50.9286 35.5717 51.2694 35.5326 51.7089C35.7572 51.451 36.0638 51.3221 36.4525 51.3221C36.8236 51.3221 37.1195 51.453 37.3402 51.7147C37.5629 51.9764 37.6742 52.3143 37.6742 52.7284C37.6742 53.1678 37.5541 53.5194 37.3138 53.7831C37.0756 54.0468 36.7552 54.1786 36.3529 54.1786C35.9447 54.1786 35.6136 54.0223 35.3597 53.7098C35.1058 53.3954 34.9789 52.9911 34.9789 52.4969V52.2889C34.9789 51.5038 35.1459 50.9042 35.4799 50.4901C35.8158 50.0741 36.3148 49.8612 36.9769 49.8514H37.0736ZM36.3617 51.7733C36.1761 51.7733 36.0052 51.829 35.849 51.9403C35.6927 52.0516 35.5844 52.1913 35.5238 52.3593V52.5585C35.5238 52.91 35.6029 53.1932 35.7611 53.4081C35.9193 53.6229 36.1166 53.7303 36.3529 53.7303C36.597 53.7303 36.7885 53.6405 36.9271 53.4608C37.0677 53.2811 37.1381 53.0458 37.1381 52.7548C37.1381 52.4618 37.0668 52.2255 36.9242 52.0458C36.7836 51.8641 36.5961 51.7733 36.3617 51.7733Z" fill="white"/>
<path d="M18.2834 34.185C18.1702 34.3198 18.0344 34.4282 17.8762 34.5102C17.72 34.5922 17.5481 34.6332 17.3606 34.6332C17.1145 34.6332 16.8997 34.5727 16.7161 34.4516C16.5344 34.3305 16.3938 34.1606 16.2942 33.9418C16.1946 33.7211 16.1448 33.478 16.1448 33.2123C16.1448 32.9272 16.1985 32.6703 16.3059 32.4418C16.4153 32.2133 16.5696 32.0385 16.7688 31.9174C16.968 31.7963 17.2004 31.7358 17.4661 31.7358C17.8879 31.7358 18.22 31.894 18.4622 32.2104C18.7063 32.5248 18.8284 32.9545 18.8284 33.4995V33.6577C18.8284 34.4877 18.6643 35.0942 18.3362 35.477C18.0081 35.8578 17.5129 36.0532 16.8508 36.0629H16.7454V35.6059H16.8596C17.3069 35.5981 17.6506 35.4819 17.8909 35.2573C18.1311 35.0307 18.262 34.6733 18.2834 34.185ZM17.4485 34.185C17.6301 34.185 17.7971 34.1293 17.9495 34.018C18.1038 33.9067 18.2161 33.769 18.2864 33.6049V33.3881C18.2864 33.0327 18.2092 32.7436 18.0549 32.5209C17.9006 32.2983 17.7053 32.187 17.469 32.187C17.2307 32.187 17.0393 32.2787 16.8948 32.4623C16.7502 32.644 16.678 32.8842 16.678 33.183C16.678 33.4741 16.7473 33.7143 16.886 33.9037C17.0266 34.0912 17.2141 34.185 17.4485 34.185Z" fill="white"/>
<path d="M14.4307 69.0469H15.7432V79H14.4307V71.3301L9.5293 79H8.20996V69.0469H9.5293V76.7168L14.4307 69.0469ZM20.9043 78.1045C21.3555 78.1045 21.7497 77.9678 22.0869 77.6943C22.4242 77.4209 22.611 77.0791 22.6475 76.6689H23.8438C23.821 77.0928 23.6751 77.4961 23.4062 77.8789C23.1374 78.2617 22.7773 78.5671 22.3262 78.7949C21.8796 79.0228 21.4056 79.1367 20.9043 79.1367C19.8971 79.1367 19.0951 78.8018 18.498 78.1318C17.9056 77.4574 17.6094 76.5368 17.6094 75.3701V75.1582C17.6094 74.4382 17.7415 73.7979 18.0059 73.2373C18.2702 72.6768 18.6484 72.2415 19.1406 71.9316C19.6374 71.6217 20.223 71.4668 20.8975 71.4668C21.7269 71.4668 22.415 71.7152 22.9619 72.2119C23.5133 72.7087 23.8073 73.3535 23.8438 74.1465H22.6475C22.611 73.668 22.4287 73.276 22.1006 72.9707C21.777 72.6608 21.376 72.5059 20.8975 72.5059C20.2549 72.5059 19.7559 72.7383 19.4004 73.2031C19.0495 73.6634 18.874 74.3311 18.874 75.2061V75.4453C18.874 76.2975 19.0495 76.9538 19.4004 77.4141C19.7513 77.8743 20.2526 78.1045 20.9043 78.1045ZM30.7617 72.6289H28.2803V79H27.0156V72.6289H24.582V71.6035H30.7617V72.6289ZM31.3701 75.2334C31.3701 74.5088 31.5114 73.8571 31.7939 73.2783C32.0811 72.6995 32.4775 72.2529 32.9834 71.9385C33.4938 71.624 34.0749 71.4668 34.7266 71.4668C35.7337 71.4668 36.5472 71.8154 37.167 72.5127C37.7913 73.21 38.1035 74.1374 38.1035 75.2949V75.3838C38.1035 76.1038 37.9645 76.751 37.6865 77.3252C37.4131 77.8949 37.0189 78.3392 36.5039 78.6582C35.9935 78.9772 35.4056 79.1367 34.7402 79.1367C33.7376 79.1367 32.9242 78.7881 32.2998 78.0908C31.68 77.3936 31.3701 76.4707 31.3701 75.3223V75.2334ZM32.6416 75.3838C32.6416 76.2041 32.8307 76.8626 33.209 77.3594C33.5918 77.8561 34.1022 78.1045 34.7402 78.1045C35.3828 78.1045 35.8932 77.8538 36.2715 77.3525C36.6497 76.8467 36.8389 76.1403 36.8389 75.2334C36.8389 74.4222 36.6452 73.766 36.2578 73.2646C35.875 72.7588 35.3646 72.5059 34.7266 72.5059C34.1022 72.5059 33.5986 72.7542 33.2158 73.251C32.833 73.7477 32.6416 74.4587 32.6416 75.3838ZM45.9375 75.3838C45.9375 76.5094 45.68 77.4163 45.165 78.1045C44.6501 78.7926 43.9528 79.1367 43.0732 79.1367C42.1755 79.1367 41.4691 78.8519 40.9541 78.2822V81.8438H39.6895V71.6035H40.8447L40.9062 72.4238C41.4212 71.7858 42.1367 71.4668 43.0527 71.4668C43.9414 71.4668 44.6432 71.8018 45.1582 72.4717C45.6777 73.1416 45.9375 74.0736 45.9375 75.2676V75.3838ZM44.6729 75.2402C44.6729 74.4062 44.4951 73.7477 44.1396 73.2646C43.7842 72.7816 43.2965 72.54 42.6768 72.54C41.9111 72.54 41.3369 72.8796 40.9541 73.5586V77.0928C41.3324 77.7673 41.9111 78.1045 42.6904 78.1045C43.2965 78.1045 43.7773 77.8652 44.1328 77.3867C44.4928 76.9036 44.6729 76.1882 44.6729 75.2402ZM52.3359 71.6035H53.6006V79H52.3359V73.6064L48.9248 79H47.6602V71.6035H48.9248V77.0039L52.3359 71.6035ZM61.2842 71.6035V79H60.0127V76.1221H58.1055L56.3623 79H54.9951L56.8545 75.9307C56.3805 75.7575 56.016 75.4909 55.7607 75.1309C55.5101 74.7663 55.3848 74.3424 55.3848 73.8594C55.3848 73.1849 55.6377 72.6426 56.1436 72.2324C56.6494 71.8177 57.3262 71.6081 58.1738 71.6035H61.2842ZM56.6562 73.873C56.6562 74.2331 56.7793 74.5247 57.0254 74.748C57.2715 74.9668 57.5973 75.0785 58.0029 75.083H60.0127V72.6289H58.1943C57.7249 72.6289 57.3512 72.7451 57.0732 72.9775C56.7952 73.2054 56.6562 73.5039 56.6562 73.873Z" fill="white"/>
</svg>
