<svg width="130" height="40" viewBox="0 0 130 40" fill="none" xmlns="http://www.w3.org/2000/svg">
<path d="M6.49068 40C-2.16356 40 -2.16356 -2.34449e-05 6.49068 0H123.509C132.164 -4.05708e-05 132.164 40 123.509 40H6.49068Z" fill="#C082C3"/>
<path d="M39.2656 26V13.2031H43.4492C44.8379 13.2031 45.8809 13.4902 46.5781 14.0645C47.2812 14.6387 47.6328 15.4883 47.6328 16.6133C47.6328 17.2109 47.4629 17.7412 47.123 18.2041C46.7832 18.6611 46.3203 19.0156 45.7344 19.2676C46.4258 19.4609 46.9707 19.8301 47.3691 20.375C47.7734 20.9141 47.9756 21.5586 47.9756 22.3086C47.9756 23.457 47.6035 24.3594 46.8594 25.0156C46.1152 25.6719 45.0635 26 43.7041 26H39.2656ZM40.9531 20.0146V24.6201H43.7393C44.5244 24.6201 45.1426 24.418 45.5938 24.0137C46.0508 23.6035 46.2793 23.041 46.2793 22.3262C46.2793 20.7852 45.4414 20.0146 43.7656 20.0146H40.9531ZM40.9531 18.6611H43.502C44.2402 18.6611 44.8291 18.4766 45.2686 18.1074C45.7139 17.7383 45.9365 17.2373 45.9365 16.6045C45.9365 15.9014 45.7314 15.3916 45.3213 15.0752C44.9111 14.7529 44.2871 14.5918 43.4492 14.5918H40.9531V18.6611ZM52.001 19.7686H54.4707C55.5488 19.7803 56.4014 20.0615 57.0283 20.6123C57.6553 21.1631 57.9688 21.9102 57.9688 22.8535C57.9688 23.8027 57.6465 24.5645 57.002 25.1387C56.3574 25.7129 55.4902 26 54.4004 26H50.375V16.4902H52.001V19.7686ZM61.3613 26H59.7266V16.4902H61.3613V26ZM52.001 21.0957V24.6729H54.418C55.0273 24.6729 55.499 24.5176 55.833 24.207C56.167 23.8906 56.334 23.46 56.334 22.915C56.334 22.3877 56.1699 21.957 55.8418 21.623C55.5195 21.2832 55.0654 21.1074 54.4795 21.0957H52.001ZM67.3906 19.9619L69.5 16.4902H71.3984L68.2871 21.1924L71.4951 26H69.6143L67.417 22.4404L65.2197 26H63.3301L66.5381 21.1924L63.4268 16.4902H65.3076L67.3906 19.9619ZM72.5234 21.1572C72.5234 20.2256 72.7051 19.3877 73.0684 18.6436C73.4375 17.8994 73.9473 17.3252 74.5977 16.9209C75.2539 16.5166 76.001 16.3145 76.8389 16.3145C78.1338 16.3145 79.1797 16.7627 79.9766 17.6592C80.7793 18.5557 81.1807 19.748 81.1807 21.2363V21.3506C81.1807 22.2764 81.002 23.1084 80.6445 23.8467C80.293 24.5791 79.7861 25.1504 79.124 25.5605C78.4678 25.9707 77.7119 26.1758 76.8564 26.1758C75.5674 26.1758 74.5215 25.7275 73.7188 24.8311C72.9219 23.9346 72.5234 22.748 72.5234 21.2715V21.1572ZM74.1582 21.3506C74.1582 22.4053 74.4014 23.252 74.8877 23.8906C75.3799 24.5293 76.0361 24.8486 76.8564 24.8486C77.6826 24.8486 78.3389 24.5264 78.8252 23.8818C79.3115 23.2314 79.5547 22.3232 79.5547 21.1572C79.5547 20.1143 79.3057 19.2705 78.8076 18.626C78.3154 17.9756 77.6592 17.6504 76.8389 17.6504C76.0361 17.6504 75.3887 17.9697 74.8965 18.6084C74.4043 19.2471 74.1582 20.1611 74.1582 21.3506ZM82.5078 24.6729L83.0703 23.9785C83.7031 23.1582 84.0635 21.9277 84.1514 20.2871L84.3008 16.4902H90.4268V24.6729H91.6484V28.7949H90.0225V26H83.3867V28.7949H81.7607L81.7695 24.6729H82.5078ZM84.4326 24.6729H88.8008V17.9932H85.874L85.7773 20.2607C85.6777 22.1533 85.2295 23.624 84.4326 24.6729Z" fill="white"/>
</svg>
