<svg width="71" height="71" viewBox="0 0 71 71" fill="none" xmlns="http://www.w3.org/2000/svg">
<circle cx="35.5" cy="35.5" r="35.5" fill="#C082C3"/>
<path d="M14.3523 39.5541L18.933 22.3253C19.1679 21.4418 19.7263 21.1191 20.6081 21.3572L55.4407 30.7634C56.3226 31.0016 56.646 31.5624 56.4111 32.4459L51.8305 49.6747C51.5955 50.5582 51.0372 50.8809 50.1553 50.6428L15.3227 41.2365C14.4409 40.9984 14.1174 40.4376 14.3523 39.5541Z" fill="#E9EAE9"/>
<path d="M28.8001 37.2757C27.7867 35.7679 28.7482 33.3998 29.3556 32.4043C29.8941 31.5217 31.4333 30.427 33.4877 30.1665C34.9095 29.9862 36.578 30.2055 38.3324 31.1713L39.0983 31.5929C42.9794 33.7285 45.3304 35.0065 46.1656 35.1985C45.1165 35.7499 43.1793 36.9594 41.7684 37.8919C41.3786 38.1495 41.029 38.386 40.7493 38.5816C39.9504 39.1404 38.7141 39.6931 37.3838 39.8941C36.1367 40.0825 34.807 39.962 33.6773 39.2482C31.8093 38.0678 29.6475 37.4414 28.8001 37.2757Z" fill="white"/>
<path d="M46.1656 35.1986C45.0808 35.1238 42.5982 34.9636 41.3462 34.9203C40.5711 34.8935 39.8833 34.8332 38.948 34.7685M26.9779 40.2624C27.137 39.286 28.1044 38.0327 28.8001 37.2757C29.3395 36.6889 30.5115 35.7369 32.0336 35.137M32.0336 35.137C32.5347 33.9641 33.5269 31.3279 33.4877 30.1665M32.0336 35.137C32.5142 34.9476 33.0296 34.7933 33.5711 34.6966M33.5711 34.6966C34.0185 34.6168 34.4836 34.5763 34.9616 34.5879C35.8338 34.6091 36.5659 34.6363 37.1967 34.6661M33.5711 34.6966C34.2912 35.1342 35.7646 36.2744 35.8969 37.3352C36.0293 38.396 36.9434 39.4831 37.3838 39.8941M37.1967 34.6661C37.8926 33.9925 39.2473 32.4348 39.0984 31.5929M37.1967 34.6661C37.8839 34.6986 38.4509 34.7342 38.948 34.7685M38.948 34.7685C39.526 35.1437 40.7326 36.0397 40.9352 36.6225C41.1378 37.2052 41.5751 37.7116 41.7684 37.8919" stroke="black" stroke-width="0.1"/>
<path d="M28.8001 37.2757C27.7867 35.7679 28.7482 33.3998 29.3556 32.4043C29.8941 31.5217 31.4333 30.427 33.4877 30.1665C34.9095 29.9862 36.578 30.2055 38.3324 31.1713L39.0983 31.5929C42.9794 33.7285 45.3304 35.0065 46.1656 35.1985C45.1165 35.7499 43.1793 36.9594 41.7684 37.8919C41.3786 38.1495 41.029 38.386 40.7493 38.5816C39.9504 39.1404 38.7141 39.6931 37.3838 39.8941C36.1367 40.0825 34.807 39.962 33.6773 39.2482C31.8093 38.0678 29.6475 37.4414 28.8001 37.2757Z" fill="white"/>
<path d="M46.1656 35.1986C45.0808 35.1238 42.5982 34.9636 41.3462 34.9203C40.5711 34.8935 39.8833 34.8332 38.948 34.7685M26.9779 40.2624C27.137 39.286 28.1044 38.0327 28.8001 37.2757C29.3395 36.6889 30.5115 35.7369 32.0336 35.137M32.0336 35.137C32.5347 33.9641 33.5269 31.3279 33.4877 30.1665M32.0336 35.137C32.5142 34.9476 33.0296 34.7933 33.5711 34.6966M33.5711 34.6966C34.0185 34.6168 34.4836 34.5763 34.9616 34.5879C35.8338 34.6091 36.5659 34.6363 37.1967 34.6661M33.5711 34.6966C34.2912 35.1342 35.7646 36.2744 35.8969 37.3352C36.0293 38.396 36.9434 39.4831 37.3838 39.8941M37.1967 34.6661C37.8926 33.9925 39.2473 32.4348 39.0984 31.5929M37.1967 34.6661C37.8839 34.6986 38.4509 34.7342 38.948 34.7685M38.948 34.7685C39.526 35.1437 40.7326 36.0397 40.9352 36.6225C41.1378 37.2052 41.5751 37.7116 41.7684 37.8919" stroke="black" stroke-width="0.1"/>
</svg>
