<svg width="130" height="40" viewBox="0 0 130 40" fill="none" xmlns="http://www.w3.org/2000/svg">
<path d="M6.49068 40C-2.16356 40 -2.16356 -2.34449e-05 6.49068 0H123.509C132.164 -4.05708e-05 132.164 40 123.509 40H6.49068Z" fill="#C082C3"/>
<path d="M30.9863 21.9395C30.8281 23.293 30.3271 24.3389 29.4834 25.0771C28.6455 25.8096 27.5293 26.1758 26.1348 26.1758C24.623 26.1758 23.4102 25.6338 22.4961 24.5498C21.5879 23.4658 21.1338 22.0156 21.1338 20.1992V18.9688C21.1338 17.7793 21.3447 16.7334 21.7666 15.8311C22.1943 14.9287 22.7979 14.2373 23.5771 13.7568C24.3564 13.2705 25.2588 13.0273 26.2842 13.0273C27.6436 13.0273 28.7334 13.4082 29.5537 14.1699C30.374 14.9258 30.8516 15.9746 30.9863 17.3164H29.29C29.1436 16.2969 28.8242 15.5586 28.332 15.1016C27.8457 14.6445 27.1631 14.416 26.2842 14.416C25.2061 14.416 24.3594 14.8145 23.7441 15.6113C23.1348 16.4082 22.8301 17.542 22.8301 19.0127V20.252C22.8301 21.6406 23.1201 22.7451 23.7002 23.5654C24.2803 24.3857 25.0918 24.7959 26.1348 24.7959C27.0723 24.7959 27.79 24.585 28.2881 24.1631C28.792 23.7354 29.126 22.9941 29.29 21.9395H30.9863ZM32.6123 21.1572C32.6123 20.2256 32.7939 19.3877 33.1572 18.6436C33.5264 17.8994 34.0361 17.3252 34.6865 16.9209C35.3428 16.5166 36.0898 16.3145 36.9277 16.3145C38.2227 16.3145 39.2686 16.7627 40.0654 17.6592C40.8682 18.5557 41.2695 19.748 41.2695 21.2363V21.3506C41.2695 22.2764 41.0908 23.1084 40.7334 23.8467C40.3818 24.5791 39.875 25.1504 39.2129 25.5605C38.5566 25.9707 37.8008 26.1758 36.9453 26.1758C35.6562 26.1758 34.6104 25.7275 33.8076 24.8311C33.0107 23.9346 32.6123 22.748 32.6123 21.2715V21.1572ZM34.2471 21.3506C34.2471 22.4053 34.4902 23.252 34.9766 23.8906C35.4688 24.5293 36.125 24.8486 36.9453 24.8486C37.7715 24.8486 38.4277 24.5264 38.9141 23.8818C39.4004 23.2314 39.6436 22.3232 39.6436 21.1572C39.6436 20.1143 39.3945 19.2705 38.8965 18.626C38.4043 17.9756 37.748 17.6504 36.9277 17.6504C36.125 17.6504 35.4775 17.9697 34.9854 18.6084C34.4932 19.2471 34.2471 20.1611 34.2471 21.3506ZM46.3057 19.9619L48.415 16.4902H50.3135L47.2021 21.1924L50.4102 26H48.5293L46.332 22.4404L44.1348 26H42.2451L45.4531 21.1924L42.3418 16.4902H44.2227L46.3057 19.9619ZM60.0781 21.3506C60.0781 22.7979 59.7471 23.9639 59.085 24.8486C58.4229 25.7334 57.5264 26.1758 56.3955 26.1758C55.2412 26.1758 54.333 25.8096 53.6709 25.0771V29.6562H52.0449V16.4902H53.5303L53.6094 17.5449C54.2715 16.7246 55.1914 16.3145 56.3691 16.3145C57.5117 16.3145 58.4141 16.7451 59.0762 17.6064C59.7441 18.4678 60.0781 19.666 60.0781 21.2012V21.3506ZM58.4521 21.166C58.4521 20.0938 58.2236 19.2471 57.7666 18.626C57.3096 18.0049 56.6826 17.6943 55.8857 17.6943C54.9014 17.6943 54.1631 18.1309 53.6709 19.0039V23.5479C54.1572 24.415 54.9014 24.8486 55.9033 24.8486C56.6826 24.8486 57.3008 24.541 57.7578 23.9258C58.2207 23.3047 58.4521 22.3848 58.4521 21.166ZM68.0234 26C67.9297 25.8125 67.8535 25.4785 67.7949 24.998C67.0391 25.7832 66.1367 26.1758 65.0879 26.1758C64.1504 26.1758 63.3799 25.9121 62.7764 25.3848C62.1787 24.8516 61.8799 24.1777 61.8799 23.3633C61.8799 22.373 62.2549 21.6055 63.0049 21.0605C63.7607 20.5098 64.8213 20.2344 66.1865 20.2344H67.7686V19.4873C67.7686 18.9189 67.5986 18.4678 67.2588 18.1338C66.9189 17.7939 66.418 17.624 65.7559 17.624C65.1758 17.624 64.6895 17.7705 64.2969 18.0635C63.9043 18.3564 63.708 18.7109 63.708 19.127H62.0732C62.0732 18.6523 62.2402 18.1953 62.5742 17.7559C62.9141 17.3105 63.3711 16.959 63.9453 16.7012C64.5254 16.4434 65.1611 16.3145 65.8525 16.3145C66.9482 16.3145 67.8066 16.5898 68.4277 17.1406C69.0488 17.6855 69.3711 18.4385 69.3945 19.3994V23.7764C69.3945 24.6494 69.5059 25.3438 69.7285 25.8594V26H68.0234ZM65.3252 24.7607C65.835 24.7607 66.3184 24.6289 66.7754 24.3652C67.2324 24.1016 67.5635 23.7588 67.7686 23.3369V21.3857H66.4941C64.502 21.3857 63.5059 21.9688 63.5059 23.1348C63.5059 23.6445 63.6758 24.043 64.0156 24.3301C64.3555 24.6172 64.792 24.7607 65.3252 24.7607ZM79.7129 26H78.0869V21.9395H73.7188V26H72.084V16.4902H73.7188V20.6123H78.0869V16.4902H79.7129V26ZM88.4844 16.4902H90.1104V26H88.4844V19.0654L84.0986 26H82.4727V16.4902H84.0986V23.4336L88.4844 16.4902ZM99.7871 17.8086H96.5967V26H94.9707V17.8086H91.8418V16.4902H99.7871V17.8086ZM103.145 19.7686H105.614C106.692 19.7803 107.545 20.0615 108.172 20.6123C108.799 21.1631 109.112 21.9102 109.112 22.8535C109.112 23.8027 108.79 24.5645 108.146 25.1387C107.501 25.7129 106.634 26 105.544 26H101.519V16.4902H103.145V19.7686ZM103.145 21.0957V24.6729H105.562C106.171 24.6729 106.643 24.5176 106.977 24.207C107.311 23.8906 107.478 23.46 107.478 22.915C107.478 22.3877 107.313 21.957 106.985 21.623C106.663 21.2832 106.209 21.1074 105.623 21.0957H103.145Z" fill="white"/>
</svg>
