<svg width="50" height="50" viewBox="0 0 50 50" fill="none" xmlns="http://www.w3.org/2000/svg">
<path d="M50 25C50 38.8071 38.8071 50 25 50C11.1929 50 0 38.8071 0 25C0 11.1929 11.1929 0 25 0C38.8071 0 50 11.1929 50 25Z" fill="#C082C3"/>
<path d="M14 38.0667V12.9333C14 11.6444 14.2588 11 14.7765 11H35.2235C35.7412 11 36 11.6444 36 12.9333V38.0667C36 39.3556 35.7412 40 35.2235 40H14.7765C14.2588 40 14 39.3556 14 38.0667Z" fill="#C3C3C3" stroke="black" stroke-width="0.2"/>
<path d="M21.2823 16.8H28.2049M16.0263 24.6122H33.9737M16.0263 32.75H33.9737" stroke="black" stroke-width="0.4"/>
</svg>
