<svg width="25" height="25" viewBox="0 0 25 25" fill="none" xmlns="http://www.w3.org/2000/svg">
<path d="M25 12.5C25 19.4036 19.4036 25 12.5 25C5.59644 25 0 19.4036 0 12.5C0 5.59644 5.59644 0 12.5 0C19.4036 0 25 5.59644 25 12.5Z" fill="#C082C3"/>
<path d="M11.9949 14.7671C11.5246 14.7671 10.6781 14.3172 10.4273 13.803C9.12098 15.4099 6.41443 19.0095 6.03826 20.5521C5.76398 21.677 7.02376 22.6012 7.91936 21.5163C9.64387 19.4273 10.8976 17.499 11.9949 14.7671Z" fill="#C1933A"/>
<path d="M19.9897 9.30349C20.1817 6.24766 17.6733 4.04435 14.8167 4.0006C11.9164 3.95619 9.31119 6.37896 9.48679 9.30349C9.56359 10.5826 10.0893 11.696 10.8976 12.5296C11.884 13.5469 13.2912 14.1475 14.8167 14.1243C17.5466 14.0828 19.8142 12.0965 19.9897 9.30349Z" fill="#E2FCF1"/>
<path d="M10.4272 13.803C10.1764 13.2888 10.6362 12.7398 10.8975 12.5296C11.1715 12.8471 11.9312 13.5464 12.7786 13.803C12.7786 14.6065 12.3083 14.7672 11.9948 14.7672C11.5245 14.7672 10.678 14.3172 10.4272 13.803Z" fill="#9B9588"/>
</svg>
