<svg width="200" height="40" viewBox="0 0 200 40" fill="none" xmlns="http://www.w3.org/2000/svg">
<path d="M9.98567 40C-3.32856 40 -3.32855 -2.34449e-05 9.98567 0H190.014C203.329 -4.05708e-05 203.329 40 190.014 40H9.98567Z" fill="#C082C3"/>
<path d="M42.959 14.5918H38.8457V26H37.167V14.5918H33.0625V13.2031H42.959V14.5918ZM47.6699 26.1758C46.3809 26.1758 45.332 25.7539 44.5234 24.9102C43.7148 24.0605 43.3105 22.9268 43.3105 21.5088V21.21C43.3105 20.2666 43.4893 19.4258 43.8467 18.6875C44.21 17.9434 44.7139 17.3633 45.3584 16.9473C46.0088 16.5254 46.7119 16.3145 47.4678 16.3145C48.7041 16.3145 49.665 16.7217 50.3506 17.5361C51.0361 18.3506 51.3789 19.5166 51.3789 21.0342V21.7109H44.9365C44.96 22.6484 45.2324 23.4072 45.7539 23.9873C46.2812 24.5615 46.9492 24.8486 47.7578 24.8486C48.332 24.8486 48.8184 24.7314 49.2168 24.4971C49.6152 24.2627 49.9639 23.9521 50.2627 23.5654L51.2559 24.3389C50.459 25.5635 49.2637 26.1758 47.6699 26.1758ZM47.4678 17.6504C46.8115 17.6504 46.2607 17.8906 45.8154 18.3711C45.3701 18.8457 45.0947 19.5137 44.9893 20.375H49.7529V20.252C49.7061 19.4258 49.4834 18.7871 49.085 18.3359C48.6865 17.8789 48.1475 17.6504 47.4678 17.6504ZM56.459 19.9619L58.5684 16.4902H60.4668L57.3555 21.1924L60.5635 26H58.6826L56.4854 22.4404L54.2881 26H52.3984L55.6064 21.1924L52.4951 16.4902H54.376L56.459 19.9619ZM62.2334 25.1475C62.2334 24.8662 62.3154 24.6318 62.4795 24.4443C62.6494 24.2568 62.9014 24.1631 63.2354 24.1631C63.5693 24.1631 63.8213 24.2568 63.9912 24.4443C64.167 24.6318 64.2549 24.8662 64.2549 25.1475C64.2549 25.417 64.167 25.6426 63.9912 25.8242C63.8213 26.0059 63.5693 26.0967 63.2354 26.0967C62.9014 26.0967 62.6494 26.0059 62.4795 25.8242C62.3154 25.6426 62.2334 25.417 62.2334 25.1475ZM81.4375 26H79.7412V14.5918H73.4307V26H71.7432V13.2031H81.4375V26ZM83.8281 21.1572C83.8281 20.2256 84.0098 19.3877 84.373 18.6436C84.7422 17.8994 85.252 17.3252 85.9023 16.9209C86.5586 16.5166 87.3057 16.3145 88.1436 16.3145C89.4385 16.3145 90.4844 16.7627 91.2812 17.6592C92.084 18.5557 92.4854 19.748 92.4854 21.2363V21.3506C92.4854 22.2764 92.3066 23.1084 91.9492 23.8467C91.5977 24.5791 91.0908 25.1504 90.4287 25.5605C89.7725 25.9707 89.0166 26.1758 88.1611 26.1758C86.8721 26.1758 85.8262 25.7275 85.0234 24.8311C84.2266 23.9346 83.8281 22.748 83.8281 21.2715V21.1572ZM85.4629 21.3506C85.4629 22.4053 85.7061 23.252 86.1924 23.8906C86.6846 24.5293 87.3408 24.8486 88.1611 24.8486C88.9873 24.8486 89.6436 24.5264 90.1299 23.8818C90.6162 23.2314 90.8594 22.3232 90.8594 21.1572C90.8594 20.1143 90.6104 19.2705 90.1123 18.626C89.6201 17.9756 88.9639 17.6504 88.1436 17.6504C87.3408 17.6504 86.6934 17.9697 86.2012 18.6084C85.709 19.2471 85.4629 20.1611 85.4629 21.3506ZM93.8125 24.6729L94.375 23.9785C95.0078 23.1582 95.3682 21.9277 95.4561 20.2871L95.6055 16.4902H101.731V24.6729H102.953V28.7949H101.327V26H94.6914V28.7949H93.0654L93.0742 24.6729H93.8125ZM95.7373 24.6729H100.105V17.9932H97.1787L97.082 20.2607C96.9824 22.1533 96.5342 23.624 95.7373 24.6729ZM104.852 24.6729L105.414 23.9785C106.047 23.1582 106.407 21.9277 106.495 20.2871L106.645 16.4902H112.771V24.6729H113.992V28.7949H112.366V26H105.73V28.7949H104.104L104.113 24.6729H104.852ZM106.776 24.6729H111.145V17.9932H108.218L108.121 20.2607C108.021 22.1533 107.573 23.624 106.776 24.6729ZM119.74 26.1758C118.451 26.1758 117.402 25.7539 116.594 24.9102C115.785 24.0605 115.381 22.9268 115.381 21.5088V21.21C115.381 20.2666 115.56 19.4258 115.917 18.6875C116.28 17.9434 116.784 17.3633 117.429 16.9473C118.079 16.5254 118.782 16.3145 119.538 16.3145C120.774 16.3145 121.735 16.7217 122.421 17.5361C123.106 18.3506 123.449 19.5166 123.449 21.0342V21.7109H117.007C117.03 22.6484 117.303 23.4072 117.824 23.9873C118.352 24.5615 119.02 24.8486 119.828 24.8486C120.402 24.8486 120.889 24.7314 121.287 24.4971C121.686 24.2627 122.034 23.9521 122.333 23.5654L123.326 24.3389C122.529 25.5635 121.334 26.1758 119.74 26.1758ZM119.538 17.6504C118.882 17.6504 118.331 17.8906 117.886 18.3711C117.44 18.8457 117.165 19.5137 117.06 20.375H121.823V20.252C121.776 19.4258 121.554 18.7871 121.155 18.3359C120.757 17.8789 120.218 17.6504 119.538 17.6504ZM133.372 21.3506C133.372 22.7979 133.041 23.9639 132.379 24.8486C131.717 25.7334 130.82 26.1758 129.689 26.1758C128.535 26.1758 127.627 25.8096 126.965 25.0771V29.6562H125.339V16.4902H126.824L126.903 17.5449C127.565 16.7246 128.485 16.3145 129.663 16.3145C130.806 16.3145 131.708 16.7451 132.37 17.6064C133.038 18.4678 133.372 19.666 133.372 21.2012V21.3506ZM131.746 21.166C131.746 20.0938 131.518 19.2471 131.061 18.626C130.604 18.0049 129.977 17.6943 129.18 17.6943C128.195 17.6943 127.457 18.1309 126.965 19.0039V23.5479C127.451 24.415 128.195 24.8486 129.197 24.8486C129.977 24.8486 130.595 24.541 131.052 23.9258C131.515 23.3047 131.746 22.3848 131.746 21.166ZM142.891 21.8691H141.748V26H140.122V21.8691H138.979L136.316 26H134.26L137.661 21.0781L134.585 16.4902H136.554L139.006 20.4277H140.122V16.4902H141.748V20.4277H142.855L145.325 16.4902H147.294L144.209 21.0869L147.61 26H145.554L142.891 21.8691ZM152.049 21.9482H150.862V26H149.228V16.4902H150.862V20.5156H151.926L155.125 16.4902H157.094L153.332 21.0605L157.41 26H155.345L152.049 21.9482ZM164.679 26C164.585 25.8125 164.509 25.4785 164.45 24.998C163.694 25.7832 162.792 26.1758 161.743 26.1758C160.806 26.1758 160.035 25.9121 159.432 25.3848C158.834 24.8516 158.535 24.1777 158.535 23.3633C158.535 22.373 158.91 21.6055 159.66 21.0605C160.416 20.5098 161.477 20.2344 162.842 20.2344H164.424V19.4873C164.424 18.9189 164.254 18.4678 163.914 18.1338C163.574 17.7939 163.073 17.624 162.411 17.624C161.831 17.624 161.345 17.7705 160.952 18.0635C160.56 18.3564 160.363 18.7109 160.363 19.127H158.729C158.729 18.6523 158.896 18.1953 159.229 17.7559C159.569 17.3105 160.026 16.959 160.601 16.7012C161.181 16.4434 161.816 16.3145 162.508 16.3145C163.604 16.3145 164.462 16.5898 165.083 17.1406C165.704 17.6855 166.026 18.4385 166.05 19.3994V23.7764C166.05 24.6494 166.161 25.3438 166.384 25.8594V26H164.679ZM161.98 24.7607C162.49 24.7607 162.974 24.6289 163.431 24.3652C163.888 24.1016 164.219 23.7588 164.424 23.3369V21.3857H163.149C161.157 21.3857 160.161 21.9688 160.161 23.1348C160.161 23.6445 160.331 24.043 160.671 24.3301C161.011 24.6172 161.447 24.7607 161.98 24.7607Z" fill="white"/>
</svg>
