<svg width="71" height="71" viewBox="0 0 71 71" fill="none" xmlns="http://www.w3.org/2000/svg">
<circle cx="35.5" cy="35.5" r="35.5" fill="#C082C3"/>
<path d="M11.3499 39.5541L15.8982 22.3253C16.1315 21.4418 16.6859 21.1191 17.5615 21.3572L52.1484 30.7634C53.024 31.0016 53.3452 31.5624 53.1119 32.4459L48.5636 49.6747C48.3303 50.5582 47.7759 50.8809 46.9003 50.6428L12.3134 41.2365C11.4378 40.9984 11.1166 40.4376 11.3499 39.5541Z" fill="#E9EAE9"/>
<path d="M25.6957 37.2757C24.6894 35.7679 25.6441 33.3998 26.2473 32.4043C26.782 31.5217 28.3103 30.427 30.3502 30.1665C31.7619 29.9862 33.4187 30.2055 35.1607 31.1713L35.9213 31.5929C39.7749 33.7285 42.1093 35.0065 42.9387 35.1985C41.897 35.7499 39.9735 36.9594 38.5725 37.8919C38.1854 38.1495 37.8383 38.386 37.5606 38.5816C36.7673 39.1404 35.5398 39.6931 34.2188 39.8941C32.9806 40.0825 31.6603 39.962 30.5385 39.2482C28.6836 38.0678 26.5371 37.4414 25.6957 37.2757Z" fill="white"/>
<path d="M42.9387 35.1986C41.8616 35.1238 39.3965 34.9636 38.1532 34.9203C37.3836 34.8935 36.7007 34.8332 35.772 34.7685M23.8863 40.2624C24.0443 39.286 25.0049 38.0327 25.6957 37.2757C26.2313 36.6889 27.395 35.7369 28.9064 35.137M28.9064 35.137C29.4039 33.9641 30.3892 31.3279 30.3502 30.1665M28.9064 35.137C29.3835 34.9476 29.8953 34.7933 30.433 34.6966M30.433 34.6966C30.8772 34.6168 31.3391 34.5763 31.8137 34.5879C32.6798 34.6091 33.4067 34.6363 34.033 34.6661M30.433 34.6966C31.1481 35.1342 32.611 36.2744 32.7425 37.3352C32.8739 38.396 33.7815 39.4831 34.2189 39.8941M34.033 34.6661C34.7241 33.9925 36.0692 32.4348 35.9213 31.5929M34.033 34.6661C34.7154 34.6986 35.2784 34.7342 35.772 34.7685M35.772 34.7685C36.3459 35.1437 37.544 36.0397 37.7452 36.6225C37.9464 37.2052 38.3806 37.7116 38.5725 37.8919" stroke="black" stroke-width="0.1"/>
<path d="M25.6957 37.2757C24.6894 35.7679 25.6441 33.3998 26.2473 32.4043C26.782 31.5217 28.3103 30.427 30.3502 30.1665C31.7619 29.9862 33.4187 30.2055 35.1607 31.1713L35.9213 31.5929C39.7749 33.7285 42.1093 35.0065 42.9387 35.1985C41.897 35.7499 39.9735 36.9594 38.5725 37.8919C38.1854 38.1495 37.8383 38.386 37.5606 38.5816C36.7673 39.1404 35.5398 39.6931 34.2188 39.8941C32.9806 40.0825 31.6603 39.962 30.5385 39.2482C28.6836 38.0678 26.5371 37.4414 25.6957 37.2757Z" fill="white"/>
<path d="M42.9387 35.1986C41.8616 35.1238 39.3965 34.9636 38.1532 34.9203C37.3836 34.8935 36.7007 34.8332 35.772 34.7685M23.8863 40.2624C24.0443 39.286 25.0049 38.0327 25.6957 37.2757C26.2313 36.6889 27.395 35.7369 28.9064 35.137M28.9064 35.137C29.4039 33.9641 30.3892 31.3279 30.3502 30.1665M28.9064 35.137C29.3835 34.9476 29.8953 34.7933 30.433 34.6966M30.433 34.6966C30.8772 34.6168 31.3391 34.5763 31.8137 34.5879C32.6798 34.6091 33.4067 34.6363 34.033 34.6661M30.433 34.6966C31.1481 35.1342 32.611 36.2744 32.7425 37.3352C32.8739 38.396 33.7815 39.4831 34.2189 39.8941M34.033 34.6661C34.7241 33.9925 36.0692 32.4348 35.9213 31.5929M34.033 34.6661C34.7154 34.6986 35.2784 34.7342 35.772 34.7685M35.772 34.7685C36.3459 35.1437 37.544 36.0397 37.7452 36.6225C37.9464 37.2052 38.3806 37.7116 38.5725 37.8919" stroke="black" stroke-width="0.1"/>
<path d="M47.8338 35.8114C45.299 20.8905 52.1424 20.8904 60 26.8074M60 26.8074L58.479 23.2057M60 26.8074H55.9444" stroke="white" stroke-width="0.4"/>
</svg>
