<svg width="100" height="100" viewBox="0 0 100 100" fill="none" xmlns="http://www.w3.org/2000/svg">
<path d="M100 50C100 77.6142 77.6142 100 50 100C22.3858 100 0 77.6142 0 50C0 22.3858 22.3858 0 50 0C77.6142 0 100 22.3858 100 50Z" fill="#C082C3"/>
<path d="M30.8054 45.5017C25.5634 43.667 15.5162 43.4267 11.1479 43.5359C10.0995 31.2172 14.6758 26.3689 23.27 21.9127C32.116 17.3259 39.2582 13.8531 49.4801 13.0668C59.702 12.2805 65.781 14.4193 70.7757 21.9127C74.5 27.5 73.7899 29.5791 81.915 36.6558C92.0714 45.5017 89.778 52.3818 89.778 54.02C89.778 55.6581 87.8123 58.2791 81.915 56.3133C78.2626 55.0959 70.8401 54.0041 64.5509 53.2715C60.6854 52.8212 57.2481 52.5065 55.3773 52.3818C51.5056 52.1237 42.5499 49.4253 35.7199 47.1705C33.8807 46.5633 32.1956 45.9882 30.8054 45.5017Z" fill="#E9EAE9"/>
<path d="M55.3772 52.3818C51.5054 52.1236 42.5498 49.4252 35.7198 47.1704C33.8632 51.7469 30.1501 61.7518 30.1501 65.1592C30.1501 69.4183 30.1501 78.2642 29.8225 80.5576C29.4949 82.8509 31.7883 87.1101 39.6513 86.7824C47.5143 86.4548 45.8762 85.4719 49.8077 85.4719C52.9529 85.4719 59.8549 86.1272 62.9127 86.4548C65.4245 86.564 70.186 84.8167 69.1376 76.9537C67.8271 67.1249 64.8784 56.4544 64.5508 53.2714C60.6853 52.8211 57.2479 52.5065 55.3772 52.3818Z" fill="#C3C3C3"/>
</svg>
